<?xml version="1.0" encoding="UTF-8"?>
<svg width="15px" height="15px" viewBox="0 0 15 15" version="1.1" xmlns="http://www.w3.org/2000/svg" xmlns:xlink="http://www.w3.org/1999/xlink">
    <title>Combined Shape</title>
    <g id="Symbols" stroke="none" stroke-width="1" fill="none" fill-rule="evenodd">
        <g id="Close_ic" transform="translate(-5.000000, -6.000000)" fill="#ffffff">
            <g id="close_ic" transform="translate(5.595022, 6.314899)">
                <path d="M0.946538103,0.00012696344 C1.16747642,0.00398345614 1.36387086,0.0948916184 1.5357273,0.272854178 L7.278,6.219 L12.8715531,0.62651086 C13.0464893,0.451574714 13.2444404,0.364107953 13.4654123,0.364107953 C13.6863843,0.364107953 13.8843354,0.451574714 14.0592715,0.62651086 C14.2342077,0.801447006 14.3216745,0.999398097 14.3216745,1.22037007 C14.3216745,1.44134205 14.2342077,1.63929314 14.0592715,1.81422928 L8.445,7.428 L13.9228971,13.100144 C14.0947535,13.2781065 14.1787522,13.477554 14.1748957,13.6984923 C14.1710393,13.9194306 14.0801311,14.1158251 13.9021685,14.2876815 C13.724206,14.4595379 13.5224169,14.5457979 13.2967954,14.5464639 C13.0711739,14.54713 12.8724378,14.4584831 12.7005814,14.2805205 L7.243,8.63 L1.45012133,14.4233795 C1.27518518,14.5983156 1.07723409,14.6857824 0.856262118,14.6857824 C0.819433456,14.6857824 0.778001832,14.6811789 0.731966004,14.6719717 C0.685930176,14.6627646 0.642196796,14.6512558 0.60076455,14.637445 C0.559332305,14.6236343 0.520202439,14.607522 0.483373776,14.5891077 C0.446545114,14.5706933 0.409717004,14.5476758 0.372888342,14.5200543 C0.336059679,14.4924328 0.299231569,14.4602082 0.262402907,14.4233795 C0.087466761,14.2484434 8.23785484e-14,14.0504923 8.2600593e-14,13.8295203 C8.27671265e-14,13.6085483 0.087466761,13.4105972 0.262402907,13.2356611 L6.076,7.421 L0.313411628,1.45323071 C0.141555182,1.27526815 0.0575564656,1.0758207 0.0614129583,0.85488238 C0.0626984559,0.781236274 0.0731895593,0.707751957 0.0928865835,0.634427225 C0.112583608,0.561102493 0.143666854,0.494883936 0.186137256,0.435769567 C0.228607657,0.376655198 0.282624625,0.315441166 0.348189778,0.252125633 C0.526152337,0.0802691873 0.725599784,-0.00372952926 0.946538103,0.00012696344 Z" id="Combined-Shape"></path>
            </g>
        </g>
    </g>
</svg>