<svg width="85" height="85" viewBox="0 0 85 85" fill="none" xmlns="http://www.w3.org/2000/svg">
<path d="M42.5 82C64.3152 82 82 64.3152 82 42.5C82 20.6848 64.3152 3 42.5 3C20.6848 3 3 20.6848 3 42.5C3 64.3152 20.6848 82 42.5 82Z" stroke="white" stroke-width="2"/>
<path fill-rule="evenodd" clip-rule="evenodd" d="M60.303 25H60.4788C61.0413 25.1172 61.1467 25.5977 60.7952 26.4414L46.4163 59.9805C46.1585 60.6133 45.7952 60.9297 45.3264 60.9297C45.1389 60.9297 44.9514 60.8652 44.7639 60.7363C44.5764 60.6074 44.4006 60.4141 44.2366 60.1562L38.5413 50.8398C38.3303 50.4648 38.0374 50.0664 37.6624 49.6445C37.2874 49.2227 36.8889 48.8242 36.4671 48.4492C36.0452 48.0742 35.6467 47.7695 35.2717 47.5352L25.7796 41.6289C25.428 41.3945 25.1936 41.1367 25.0764 40.8555C24.9592 40.5742 24.9768 40.3105 25.1292 40.0645C25.2815 39.8184 25.5569 39.6016 25.9553 39.4141L59.5296 25.1758C59.8342 25.0586 60.0921 25 60.303 25ZM36.4671 45.5312C36.9124 45.8125 37.4045 46.1992 37.9436 46.6914L54.5725 29.7812L28.7678 40.75L36.4671 45.5312ZM45.1506 57.168L56.1897 31.3281L39.5256 48.2734C39.6663 48.4375 39.7952 48.5957 39.9124 48.748C40.0296 48.9004 40.1467 49.0586 40.2639 49.2227C40.3811 49.3867 40.4749 49.5391 40.5452 49.6797L45.1506 57.168Z" fill="white"/>
</svg>
