<svg width="51" height="52" viewBox="0 0 51 52" fill="none" xmlns="http://www.w3.org/2000/svg">
<circle cx="25.5" cy="26.5" r="25.5" fill="white"/>
<path d="M36.7333 34.2444L41.3333 38.7481" stroke="black"/>
<path d="M22.9333 34.2444V28.2395C22.9333 27.4104 23.6198 26.7383 24.4667 26.7383H42.1C42.9468 26.7383 43.6333 27.4104 43.6333 28.2395V39.4988C43.6333 40.3279 42.9468 41 42.1 41H24.4667C23.6198 41 22.9333 40.3279 22.9333 39.4988V36.4963" stroke="black"/>
<path d="M25.2333 28.9901L31.3667 34.9951C32.5431 35.6998 34.0236 35.6998 35.2 34.9951L41.3333 28.9901" stroke="black"/>
<path d="M29.8333 34.2444L25.2333 38.7481" stroke="black"/>
<path d="M22.1667 22.2346L24.4667 24.4864" stroke="black"/>
<path d="M29.0667 23.7358V26.7383" stroke="black"/>
<path d="M22.9333 28.9901H9.9C9.05317 28.9901 8.36667 28.318 8.36667 27.4889V16.2296C8.36667 15.4005 9.05317 14.7284 9.9 14.7284H27.5333C28.3802 14.7284 29.0667 15.4005 29.0667 16.2296V21.4839" stroke="black"/>
<path d="M10.6667 16.9803L16.8 22.9852C17.9764 23.6899 19.4569 23.6899 20.6333 22.9852L26.7667 16.9803" stroke="black"/>
<path d="M15.2667 22.2346L10.6667 26.7383" stroke="black"/>
<path d="M26.7667 21.4839H35.2" stroke="black"/>
<path d="M32.1333 17.7309H38.2667" stroke="black"/>
<path d="M19.8667 37.9975H13.7333" stroke="black"/>
<path d="M25.2333 34.2444H17.5667" stroke="black"/>
<path d="M10.6667 37.9975H12.2" stroke="black"/>
<path d="M7.60001 37.9975H9.13334" stroke="black"/>
<path d="M39.8 17.7309H41.3334" stroke="black"/>
<path d="M42.8667 17.7309H44.4" stroke="black"/>
<path d="M37.5 10.9753H24.4667" stroke="black"/>
</svg>
