<svg width="51" height="52" viewBox="0 0 51 52" fill="none" xmlns="http://www.w3.org/2000/svg">
<circle cx="25.5" cy="26.5" r="25.5" fill="white"/>
<path d="M21.1149 30.9438V28.736" stroke="black"/>
<path d="M18.706 36.0953C18.706 36.8312 19.4278 37.5671 20.2972 37.5671H21.853C22.7223 37.5671 23.4265 36.8312 23.4265 36.0953V35.8727C23.4265 35.3023 23.0016 34.7964 22.3595 34.6161L19.7858 33.8948C19.1436 33.7109 18.704 33.2086 18.704 32.6382V32.4156C18.704 31.6797 19.4082 30.9438 20.2775 30.9438H21.851C22.7204 30.9438 23.4245 31.6797 23.4245 32.4156V33.1515" stroke="black"/>
<path d="M21.1149 37.5671V39.7749" stroke="black"/>
<path d="M21.2088 42.1089C25.4167 42.1089 28.8279 38.6977 28.8279 34.4898C28.8279 30.282 25.4167 26.8708 21.2088 26.8708C17.0009 26.8708 13.5898 30.282 13.5898 34.4898C13.5898 38.6977 17.0009 42.1089 21.2088 42.1089Z" stroke="black"/>
<path d="M28.9824 23.8875V26.0953" stroke="black" stroke-linecap="round"/>
<path d="M32.9161 24.6234V35.6624" stroke="black" stroke-linecap="round"/>
<path d="M36.8499 20.9438V35.6624" stroke="black" stroke-linecap="round"/>
<path d="M40.7836 18V35.6624" stroke="black" stroke-linecap="round"/>
<path d="M27.8571 40.381L32.0807 44.1905" stroke="black" stroke-linecap="round" stroke-linejoin="round"/>
<path d="M9.265 23.1515C10.5685 23.1515 11.6253 22.1631 11.6253 20.9438C11.6253 19.7244 10.5685 18.736 9.265 18.736C7.96147 18.736 6.90475 19.7244 6.90475 20.9438C6.90475 22.1631 7.96147 23.1515 9.265 23.1515Z" stroke="black"/>
<path d="M19.4927 15.7922C20.7963 15.7922 21.853 14.8038 21.853 13.5844C21.853 12.3651 20.7963 11.3766 19.4927 11.3766C18.1892 11.3766 17.1325 12.3651 17.1325 13.5844C17.1325 14.8038 18.1892 15.7922 19.4927 15.7922Z" stroke="black"/>
<path d="M31.294 21.6797C32.5975 21.6797 33.6542 20.6912 33.6542 19.4719C33.6542 18.2526 32.5975 17.2641 31.294 17.2641C29.9905 17.2641 28.9337 18.2526 28.9337 19.4719C28.9337 20.6912 29.9905 21.6797 31.294 21.6797Z" stroke="black"/>
<path d="M40.735 14.3204C42.0385 14.3204 43.0952 13.3319 43.0952 12.1126C43.0952 10.8932 42.0385 9.90479 40.735 9.90479C39.4315 9.90479 38.3747 10.8932 38.3747 12.1126C38.3747 13.3319 39.4315 14.3204 40.735 14.3204Z" stroke="black"/>
<path d="M11.1335 19.5988L17.6242 14.9294" stroke="black"/>
<path d="M21.5776 14.6248L29.2111 18.4333" stroke="black"/>
<path d="M33.1045 18.0598L38.9235 13.5247" stroke="black"/>
<path d="M9.31364 26.0953V35.6624" stroke="black" stroke-linecap="round"/>
<path d="M13.2474 23.8875V26.0953" stroke="black" stroke-linecap="round"/>
<path d="M17.1811 19.4719V23.1515" stroke="black" stroke-linecap="round"/>
<path d="M21.1149 19.4719V22.4156" stroke="black" stroke-linecap="round"/>
<path d="M25.0486 21.6797V23.1515" stroke="black" stroke-linecap="round"/>
</svg>
