<svg width="51" height="52" viewBox="0 0 51 52" fill="none" xmlns="http://www.w3.org/2000/svg">
<circle cx="25.5" cy="26.5" r="25.5" fill="white"/>
<path d="M6.66669 25.3186V33.2483L10.6173 33.8896" stroke="black" stroke-linejoin="round"/>
<path fill-rule="evenodd" clip-rule="evenodd" d="M10.1959 22.4596C11.9525 21.6486 14.0698 21.1092 16.3076 20.8308L19.8358 26.9086L6.66669 25.2798C7.27049 24.2476 8.43824 23.2697 10.1959 22.4596Z" stroke="black" stroke-linejoin="round"/>
<path d="M36.8231 27.4781C39.6817 29.7355 38.9673 32.6585 34.6818 34.5832C29.5395 36.8931 21.2029 36.8931 16.0605 34.5832C12.5832 33.0213 11.4663 30.7998 12.6938 28.8149L25.3986 30.3428L22.0239 24.6851C22.6117 24.6152 23.2086 24.5648 23.8084 24.5328" stroke="black" stroke-linejoin="round"/>
<path d="M38.5508 30.5825V37.0512C38.5508 40.337 32.6542 43 25.3817 43C18.1091 43 12.2115 40.337 12.2115 37.0512V30.5825" stroke="black" stroke-linejoin="round"/>
<path d="M29.1667 19.7171C29.1667 20.4932 29.898 21.2693 30.7788 21.2693H32.3551C33.2359 21.2693 33.9493 20.4932 33.9493 19.7171V19.4823C33.9493 18.8809 33.5189 18.3473 32.8682 18.1571L30.2627 17.3966C29.6121 17.2025 29.1667 16.6729 29.1667 16.0714V15.8366C29.1667 15.0605 29.8801 14.2844 30.7609 14.2844H32.3551C33.2359 14.2844 33.9493 15.0605 33.9493 15.8366V16.6127" stroke="black"/>
<path d="M31.5915 14.2844V11.9561" stroke="black"/>
<path d="M31.5915 21.2693V23.5976" stroke="black"/>
<path d="M31.7392 26.3333C36.3415 26.3333 40.0725 22.6024 40.0725 18C40.0725 13.3976 36.3415 9.66666 31.7392 9.66666C27.1368 9.66666 23.4058 13.3976 23.4058 18C23.4058 22.6024 27.1368 26.3333 31.7392 26.3333Z" stroke="black"/>
<path d="M38.5507 23.5976L43.3333 28.2542" stroke="black" stroke-linecap="round"/>
</svg>
