<svg width="51" height="52" viewBox="0 0 51 52" fill="none" xmlns="http://www.w3.org/2000/svg">
<circle cx="25.5" cy="26.5" r="25.5" fill="white"/>
<path d="M22.2451 37.0757H9.47827V24.894" stroke="black" stroke-linecap="round" stroke-linejoin="round"/>
<path d="M18.4901 24.5736H14.7352V29.2619H18.4901V24.5736Z" stroke="black" stroke-linejoin="round"/>
<path d="M28.253 13.6342V11.29C28.253 10.4269 27.5805 9.72726 26.751 9.72726H21.4941C20.6646 9.72726 19.9921 10.4269 19.9921 11.29V13.6342" stroke="black"/>
<path d="M21.4941 26.1852H18.4901" stroke="black" stroke-linecap="round" stroke-linejoin="round"/>
<path d="M14.7352 26.1363H12.4822C9.9758 26.1363 8.72728 24.7191 8.72728 22.2294V13.6342H39.5178V22.2294" stroke="black" stroke-linecap="round" stroke-linejoin="round"/>
<path d="M27.551 28.4805V33.9502" stroke="black" stroke-linecap="round"/>
<path d="M30.555 31.606V33.9502" stroke="black" stroke-linecap="round"/>
<path d="M33.5589 26.9177V33.9502" stroke="black" stroke-linecap="round"/>
<path d="M36.5629 29.2619V33.9502" stroke="black" stroke-linecap="round"/>
<path d="M32.0079 39.4199C36.5703 39.4199 40.2688 35.5717 40.2688 30.8247C40.2688 26.0777 36.5703 22.2294 32.0079 22.2294C27.4456 22.2294 23.747 26.0777 23.747 30.8247C23.747 35.5717 27.4456 39.4199 32.0079 39.4199Z" stroke="black" stroke-linecap="round"/>
<path d="M37.8487 36.9019L43.2727 42.5454" stroke="black" stroke-linecap="round"/>
</svg>
