<svg width="51" height="52" viewBox="0 0 51 52" fill="none" xmlns="http://www.w3.org/2000/svg">
<circle cx="25.5" cy="26.5" r="25.5" fill="white"/>
<path d="M40.6465 30.9633C40.838 31.6475 40.9399 32.3552 40.9495 33.0674C40.9495 39.2063 35.8919 41.7527 29.6364 41.7527C28.1262 41.7666 26.6199 41.5939 25.1495 41.2384" stroke="black" stroke-width="1.11"/>
<path d="M22.3242 24.019C23.9737 21.7783 25.9757 19.5512 28.0202 17.5515C28.0202 17.5515 24.3283 11.5805 24.4434 11.353C25.4747 9.31472 27.6242 9.70799 29.6394 10.2682C32.5061 11.0672 33.6505 10.918 34.199 10.8941C34.2475 11.7286 31.2525 17.5494 31.2525 17.5494C33.1879 19.4385 36 22.1132 37.8283 25.3084" stroke="black" stroke-width="1.11"/>
<path d="M26.404 17.6036H32.8687" stroke="black" stroke-width="1.11" stroke-linecap="round"/>
<path d="M14.2828 35.911C14.2828 36.7455 15.0242 37.58 15.9172 37.58H17.5152C18.4081 37.58 19.1313 36.7455 19.1313 35.911V35.6585C19.1313 35.0118 18.6949 34.4381 18.0354 34.2336L15.3919 33.4158C14.7323 33.2071 14.2808 32.6376 14.2808 31.9908V31.7384C14.2808 30.9038 15.004 30.0693 15.897 30.0693H17.5131C18.4061 30.0693 19.1293 30.9038 19.1293 31.7384V32.5729" stroke="black" stroke-width="1.11"/>
<path d="M16.7576 30.0693V27.5658" stroke="black" stroke-width="1.11"/>
<path d="M16.7576 37.58V40.0836" stroke="black" stroke-width="1.11"/>
<path d="M16.7071 42.5455C21.6163 42.5455 25.596 38.641 25.596 33.8247C25.596 29.0083 21.6163 25.1039 16.7071 25.1039C11.7979 25.1039 7.81818 29.0083 7.81818 33.8247C7.81818 38.641 11.7979 42.5455 16.7071 42.5455Z" stroke="black" stroke-width="1.11"/>
<path d="M28.0202 31.7384L32.0606 27.5658L36.101 31.7384L44.1818 23.3931" stroke="black" stroke-width="1.11"/>
<path d="M44.1818 27.5658V23.3931H40.1414" stroke="black" stroke-width="1.11"/>
</svg>
