<?xml version="1.0" encoding="UTF-8"?>
<svg xmlns="http://www.w3.org/2000/svg" version="1.1" viewBox="0 0 500 500">
  <defs>
    <style>
      .cls-1 {
        fill: lime;
      }
    </style>
  </defs>
  <!-- Generator: Adobe Illustrator 28.7.1, SVG Export Plug-In . SVG Version: 1.2.0 Build 142)  -->
  <g>
    <g id="Layer_1">
      <path class="cls-1" d="M212.76,262.72c0,.62-.5,1.12-1.12,1.12s-1.12-.5-1.12-1.12.5-1.12,1.12-1.12,1.12.5,1.12,1.12ZM198.69,382.32c-2.09.07-3.39,1.49-3.31,3.62,0,2.64,1.6,4.02,3.46,3.96,2.18-.06,4.15-2.01,4.1-3.97-.06-2.26-1.76-3.7-4.25-3.62ZM184.91,218.05c.59,0,1.06-.47,1.06-1.06s-.47-1.06-1.06-1.06-1.06.47-1.06,1.06.47,1.06,1.06,1.06ZM347.93,100.73c2.15.03,4.18-1.66,4.18-3.49,0-1.51-2.05-3.89-3.38-3.91-2.26-.05-3.99,1.35-3.99,3.24-.01,2.8,1.01,4.12,3.19,4.16ZM349.1,118.39c0,2.22,1.59,3.99,3.65,4.08,1.59.07,3.67-1.93,3.7-3.54.03-1.85-1.8-4.13-3.34-4.17-2.21-.05-4.01,1.58-4.01,3.63ZM359.36,99.67c1.22-.02,2.39-.29,2.41-1.74.01-1.17-.59-2.23-1.95-2.29-1.14-.05-2.17.7-2.21,1.72-.04.93.17,2.31,1.75,2.31ZM379.45,99.7c2.01,0,4.04-1.84,4.01-3.6-.03-1.54-2.24-3.71-3.79-3.73-1.98-.02-3.74,1.52-3.7,3.24.06,2.88,1.1,4.1,3.48,4.1ZM217.66,253.63c2.48,0,4.84-1.91,4.9-3.98.1-3.05-2.07-5.33-5.1-5.33-2.18,0-4.27,2.12-4.31,4.27-.07,3.95,2.02,4.98,4.51,5.05ZM168.86,258.22c-1.94.07-2.61.86-2.51,2.09.21,2.6.88,3.12,2.29,3.02,1.56-.11,2.31-1.11,2.26-2.69-.06-1.32-.6-2.47-2.04-2.42ZM383.6,120.05c.17,4.44-1.7,39.88-1.9,44.9-.42,10.48-3.58,98.07-3.74,102.81-.24,7.47-.64,14.93-.66,22.4-.01,3.84-.22,7.73-.91,11.49-.62,3.42-2.6,5.48-6.22,6.49-3.53.99-6.78,2.57-10.1,4.04-5.19,2.3-8.26,5.75-11.41,10.94-2.12,3.49-4.73,2.17-6.14.16-2.2-3.15-4.27-3.94-6.3-1.38-3.67,4.63-6.41,5.09-11.89,4.63-4.1-.34-6.77.19-10.51,1.54-10.25,3.7-76.42,27.07-82.83,29.6-1.36.54-2.45,1.5-3.57,2.4-2.08,1.66-4.17,2.09-6.06,2.29-1.52.16-3.07.33-4.36,1.21-1.7,1.15-2.9,2.18-4.1,3.2-1.94,1.66-3.42,4.02-4.7,7.26-1.25,3.16-3.55,5.37-7.13,1.69-2.44-2.5-4.29-2-5.99-.47-4.13,3.73-3.1,10.93-2.91,15.71.11,2.74-.08,5.48-.2,8.2-.11,2.51.31,5.12-1.3,7.28-1.57,2.11-4.01,1.12-5.02-1.07-1.13-2.46-.31-6.46-.18-9.12.23-4.9.47-9.88.91-14.76.3-3.31-.03-6.64-3.65-7.96-2.36-.86-3.49-2.27-4.26-5.53-.39-1.64-1.13-3.44-2.13-5.23-9.5-16.95-30.61-53.97-37.93-66.42-4.8-8.17-40.69-70.56-42.53-74.01-4.13-7.73,4.01-16.97,12.89-12.96,6.73,3.04,37.29,16.53,44.82,19.63,1.7.7,3,.89,4.75.15,4.74-2,9.09-.52,11.24,4.27,1.14,2.54,2.23,3.33,4.6,4.49,2.2,1.08,7.87,3.38,10.01,4.41,1.38.67,2.33,1.06,2.98-1.27,1.88-6.7,8.19-24.94,10.95-34.5,2.12-7.33,15.39-49.14,16.87-53.56,1.73-5.17,9.35-7.76,14.44-3.36,9.21,7.95,32.86,28.51,45.11,39.46,4.76,4.26,9.6,8.43,14.4,12.65,1.15,1.02,2,1.43,3.43.03,25.2-24.66,46.21-45.86,62.66-70.62,3.77-5.68,7.21-11.57,10.47-17.56,4.22-7.78,17.63-6.14,18.1,6.41ZM362.06,155.39c-5.81,7.23-26.19,31.54-31.74,37.16-5.34,5.41-21.86,21.46-25.59,24.3-4.1,3.12-3.28,7.97-3.34,16.65-.02,3.32.56,6.6.19,9.99-.24,2.22-1.36,3.28-2.98,3.39-1.47.09-2.93-.7-3.24-2.83-.8-5.48-2.85-10.56-5.8-15.26-2.31-3.68-5.7-6.27-8.95-9.05-7.04-5.99-43.26-37.93-50.89-44.8-.73-.65-1.2-.52-1.5.4-3.61,11.11-9.8,29.55-13.94,43.22-3.68,12.18-9.64,30.4-9.64,39.01,0,9.87.66,15.02.66,17.3,0,1.11-.9,2-2,2-1.22,0-1.65.36-1.64,1.06.01.67,0,1.08,0,1.74,0,1.31-.95,2.37-2.12,2.37s-1.86-1.09-2.12-2.37c-1.62-7.98-10.12-15.66-20.56-19.88-5.17-2.09-10.28-4.29-15.39-6.46-7.97-3.39-23.68-10.55-31.72-13.81-1.56-.63-2.03.03-1.24,1.52,4.24,8,23.19,40.31,32.89,57.38,4.21,7.4,23.01,40.35,29.19,50.98,1.17,2.02,2.3,2.28,4.42,1.19,1.05-.54,73.33-26.14,76.36-27.19,4.78-1.65,51.46-18.57,59.56-21.44,5.28-1.87,9.86-3.06,14.99-5.46,3.21-1.5,6.84-2.51,10.78-3.65,1.11-.32,1.55-.99,1.59-2.03.25-6.3,2.79-70.77,3.14-80.9.18-5.28,1.82-47.89,1.84-54.18,0-1.23-.57-1.15-1.22-.34ZM398.78,113.64c-5.25-.29-8.53,3.33-8.26,7.1-.42,4.81,3.39,7.63,7.35,7.86,4.06.23,7.35-3.21,7.36-7.45.01-4.87-3.08-7.33-6.45-7.52ZM391.5,103.78c-.1-1.27-.8-1.72-2.11-1.66-1.29.06-1.76.57-1.66,1.79.1,1.02.38,2.01,1.66,1.89,1.15-.1,2.24-.53,2.12-2.02ZM180.33,267.75c-2.59-.07-5.37,2.22-5.4,4.43-.03,2.72,2.16,5.28,4.65,5.41,2.39.13,4.79-2.2,4.89-4.74.09-2.35-2.11-5.05-4.14-5.1ZM194.75,330.56c-3.82.06-6.77,3.31-6.77,7.62,0,4.27,3.53,7.9,7.61,7.84,3.83-.06,7.17-3.73,7.28-7.74.11-3.83-3.16-7.8-8.12-7.72ZM219.29,272.66c-3.04,0-4.89,1.83-4.9,4.84,0,2.52,2,4.43,4.67,4.43,3.01,0,4.74-1.86,4.71-5.03-.03-2.33-2.04-4.24-4.47-4.24ZM355.96,105.96c-.52,0-.95.42-.95.95s.42.95.95.95.95-.42.95-.95-.42-.95-.95-.95ZM351.05,133.54c-.51,0-.92.41-.92.92s.41.92.92.92.92-.41.92-.92-.41-.92-.92-.92ZM391.5,134.39c-1.08,0-1.95.87-1.95,1.95s.87,1.95,1.95,1.95,1.95-.87,1.95-1.95-.87-1.95-1.95-1.95ZM343.96,328.42c-.95,0-1.72.77-1.72,1.72s.77,1.72,1.72,1.72,1.72-.77,1.72-1.72-.77-1.72-1.72-1.72ZM211.48,334.49c-1.11,0-2.01.9-2.01,2.01s.9,2.01,2.01,2.01,2.01-.9,2.01-2.01-.9-2.01-2.01-2.01ZM218.02,368.67c-1.13,0-2.05.92-2.05,2.05s.92,2.05,2.05,2.05,2.05-.92,2.05-2.05-.92-2.05-2.05-2.05ZM229.6,372c-.73,0-1.32.59-1.32,1.32s.59,1.32,1.32,1.32,1.32-.59,1.32-1.32-.59-1.32-1.32-1.32Z"/>
    </g>
  </g>
</svg>