<svg width="85" height="85" viewBox="0 0 85 85" fill="none" xmlns="http://www.w3.org/2000/svg">
<path d="M42.5 82C64.3152 82 82 64.3152 82 42.5C82 20.6848 64.3152 3 42.5 3C20.6848 3 3 20.6848 3 42.5C3 64.3152 20.6848 82 42.5 82Z" stroke="white" stroke-width="2"/>
<path fill-rule="evenodd" clip-rule="evenodd" d="M52.75 38.5C53.9922 38.5 55.0527 38.9394 55.9316 39.8184C56.8106 40.6973 57.25 41.7578 57.25 43V56.5C57.25 57.7422 56.8106 58.8027 55.9316 59.6816C55.0527 60.5606 53.9922 61 52.75 61H32.5C31.2578 61 30.1973 60.5606 29.3184 59.6816C28.4394 58.8027 28 57.7422 28 56.5V43C28 41.7578 28.4394 40.6973 29.3184 39.8184C30.1973 38.9394 31.2578 38.5 32.5 38.5H33.625V34.2109C33.625 32.5234 33.9941 30.9824 34.7324 29.5879C35.4707 28.1934 36.5312 27.0801 37.9141 26.248C39.2969 25.416 40.8555 25 42.5898 25C45.2149 25 47.3769 25.8848 49.0762 27.6543C50.7754 29.4238 51.625 31.6094 51.625 34.2109V38.5H52.75ZM35.875 34.2109V38.5H49.375V34.2109C49.375 32.2187 48.7422 30.5606 47.4766 29.2363C46.2109 27.9121 44.582 27.25 42.5898 27.25C40.5976 27.25 38.9805 27.918 37.7383 29.2539C36.4961 30.5899 35.875 32.2422 35.875 34.2109ZM55 56.5V43C55 42.3906 54.7773 41.8633 54.332 41.418C53.8867 40.9727 53.3594 40.75 52.75 40.75H32.5C31.8906 40.75 31.3633 40.9727 30.918 41.418C30.4727 41.8633 30.25 42.3906 30.25 43V56.5C30.25 57.1094 30.4727 57.6367 30.918 58.082C31.3633 58.5273 31.8906 58.75 32.5 58.75H52.75C53.1484 58.75 53.5234 58.6504 53.875 58.4512C54.2266 58.252 54.502 57.9766 54.7012 57.625C54.9004 57.2734 55 56.8984 55 56.5ZM44.207 45.918C44.6523 46.3398 44.875 46.8672 44.875 47.5C44.875 48.3438 44.5 48.9883 43.75 49.4336V53.125C43.75 53.4297 43.6387 53.6934 43.416 53.916C43.1934 54.1387 42.9297 54.25 42.625 54.25C42.3203 54.25 42.0566 54.1387 41.834 53.916C41.6113 53.6934 41.5 53.4297 41.5 53.125V49.4336C40.75 48.9883 40.375 48.3438 40.375 47.5C40.375 46.8672 40.5918 46.334 41.0254 45.9004C41.459 45.4668 41.9922 45.25 42.625 45.25C43.2578 45.25 43.7852 45.4727 44.207 45.918Z" fill="white"/>
</svg>
