<?xml version="1.0" encoding="UTF-8"?>
<svg xmlns="http://www.w3.org/2000/svg" version="1.1" viewBox="0 0 500 500">
  <defs>
    <style>
      .cls-1 {
        fill: lime;
      }

      .cls-2 {
        fill: #fff;
      }
    </style>
  </defs>
  <!-- Generator: Adobe Illustrator 28.7.1, SVG Export Plug-In . SVG Version: 1.2.0 Build 142)  -->
  <g>
    <g id="Layer_1">
      <g>
        <path class="cls-1" d="M141.64,413.98c.15,2.49.27,4.72.57,6.93.23,1.67-1.07,2.77-2.25,2.77s-2.37-.81-2.17-2.9c.29-2.97.77-5.93.43-8.93-.18-1.6-.7-2.86-2.22-3.84-3.63-2.33-6.15-5.64-7.55-9.74-.74-2.16-.12-3.81,1.82-5.05,38.36-24.4,71.21-45.03,110.78-64.37,71.85-35.11,130.3-50.71,150.87-54.75,1.3-.25,2.48-.04,3.33,1.03,5.28,6.61,6.13,11.22,6.18,11.98.14,2.4-.76,3.86-3.44,4.33-5.32.93-22.7,3.82-36.71,6.78-2.75.58-3.64-.94-.61-1.75,2.14-.57,14.7-3.62,26.26-6.69,1.12-.3,2.19-.73,3.26-1.16,1.5-.6,1.47-1.9-.49-1.56-1.45.25-2.9.55-4.35.85-38.13,7.72-97.12,32.95-127.17,48.47-34.61,17.88-85.83,47.87-113.74,70.74-2.28,1.87-3.23,4.19-2.78,6.83ZM102.37,184.26c.43,0,.66-.26.65-.7-.01-.41-.26-.59-.66-.61-.42.04-.66.28-.65.71.01.4.28.62.66.61ZM96.17,183.8c-.01-1.24,1.03-2.28,2.29-2.29,1.26,0,2.29,1.03,2.28,2.28,0,1.26-1.04,2.25-2.32,2.23-1.24-.02-2.24-1.01-2.25-2.23ZM250.23,142.94c.49-8.87,4.21-15.86,5.28-17.04.78-.86,1.8-1.16,2.89-.76,2.08.76,4.12,1.65,6.09,2.68,1.47.77,1.59,2.03.44,3.31-1.19,1.33-2.61,2.42-3.96,3.58-3.01,2.58-7.8,7.61-8.62,8.78-.39.55-.72.88-1.25.88-.49,0-.91-.59-.87-1.42ZM95.99,197.4c1.21.02,2.17.94,2.17,2.09,0,1.27-1.04,2.32-2.28,2.3-1.2-.02-2.19-1.02-2.18-2.21.01-1.22,1.04-2.21,2.29-2.19ZM97.88,195.9c-.42-.03-.65-.3-.62-.73.02-.38.25-.6.65-.6.44,0,.63.27.68.67-.06.41-.28.68-.71.65ZM111.84,187.31c0-.35.21-.58.57-.59.41-.01.6.23.65.61-.04.36-.22.58-.58.6-.41.02-.63-.21-.63-.61ZM109.35,184.29c0-.4.2-.64.61-.63.36,0,.58.21.59.57.01.4-.21.61-.61.64-.36-.04-.59-.21-.59-.58ZM103.04,185.98c-.02-.74.55-1.34,1.29-1.36.75-.02,1.34.55,1.36,1.29.02.75-.54,1.34-1.29,1.36-.75.02-1.34-.55-1.36-1.29ZM106.89,186.75c.04-.35.28-.55.63-.54.42.01.57.29.58.66-.06.38-.27.57-.63.54-.39-.03-.63-.25-.57-.66ZM92.93,196.9c-.03-.4.15-.65.56-.67.35-.01.59.17.62.53.04.4-.17.62-.55.67-.38,0-.6-.17-.63-.54ZM232.92,217.47c.02.74-.66,1.43-1.42,1.44-.73,0-1.39-.78-1.4-1.66,0-.69.56-1.29,1.24-1.31.77-.02,1.56.74,1.58,1.52ZM282.21,159.4c.66-.02,1.24.53,1.23,1.19,0,.68-.56,1.21-1.23,1.19-.64-.02-1.15-.55-1.15-1.19,0-.64.51-1.17,1.15-1.19ZM139.34,256.5c.97,2.31.45,4.11-1.68,5.49-2.25,1.46-4.52,2.87-6.78,4.31-7.46,4.75-15.02,9.35-22.38,14.27-2.57,1.72-3.95,1.66-6.5-.15-3.08-2.19-5.95-4.62-8.59-7.33-1.29-1.32-1.97-2.97-1.32-4.67,1.24-3.24,1.04-6.58,1.19-9.91.27-5.69,2.73-28.75,3.22-34.89.53-6.6,2.45-31.89,2.46-32.84,0-.67-.29-1.09-.93-1.31-.92-.32-1.27-.92-1.05-1.7.21-.74.93-.84,1.82-.89,1.05-.06,1.7.27,2.41.95.29.27.96.19,1.46.19,3.85.03,7.49,1.1,11.1,2.3,2.56.85,4.37,2.86,3.87,5.55-1.24,6.71-3.72,29.98-4.23,35.66-.5,5.63-1.56,22.8-1.53,23.79.05,1.57.29,1.72,1.66,1.01,2.1-1.1,4.17-2.26,6.27-3.36,1.9-1,3.82-1.97,5.74-2.93,3.02-1.52,7.7-2.49,8.63-.18.36.89.56,1.83,1.7,2.41,1.77.9,2.74,2.49,3.48,4.25ZM93.85,190.43c-.01-.41.24-.69.67-.68.46.01.8.24.82.75.02.44-.26.64-.67.7-.45-.06-.8-.27-.81-.76ZM90.63,192.66c-.01.46-.28.7-.73.75-.43-.06-.67-.3-.64-.73.03-.47.32-.71.78-.68.39.02.61.27.6.67ZM94.51,185.97c-.04-.41.18-.7.6-.74.43-.04.64.23.71.56-.01.49-.21.76-.64.77-.39.02-.63-.22-.67-.59ZM95.36,195.24c-.77.02-1.44-.65-1.42-1.43.02-.75.65-1.36,1.41-1.35.75,0,1.39.64,1.39,1.38,0,.73-.64,1.38-1.38,1.4ZM306.13,140.09c-3.26,3.61-6.27,6.16-11.17,9.12-4.44,2.68-7.24,5.83-9.61,8.61-.93,1.09-2.07.37-1.55-.99.9-2.31,1.55-4.07,2.28-6.46.33-1.06.03-1.74-1.4-.97-11.63,6.23-25.83,17.46-33.37,26.93-.67.83-.06,1.37.77,1.22,5.44-.99,20.47-4.6,28.56-3.24,6.44,1.08,13.66,6.73,14.16,9.98.18,1.2.27,3.05.06,4.24-.73,4.2-3.03,7.42-6.04,10.35-5.76,5.6-17.95,10.52-28.31,13.62-2.06.62-5.18,1.82-7.44,3.28-.92.6-2.15.88-3.26.64-1.3-.28-1.86.27-1.96,1.82-.06,1-.09,2-.33,2.98-.14.57-.37,1.12-1.08,1.05-.71-.07-.91-.64-.96-1.27-.04-.5-.05-1.01.1-1.49.37-1.17-.66-1.93-1.58-1.31-1.07.72-2.21.58-3.37.31-1.37-.32-2.34.46-2.36,1.87,0,.56.02,1.12.02,1.68.01.85-.56,1.89-1.64,1.89-.76,0-1.21-.81-1.14-1.62.11-1.25.5-2.46.42-3.73-.08-1.3-.49-2.43-1.86-2.87-4.38-1.44-6.76-4.73-8.2-8.87-1.17-3.37-1.58-6.84-1.2-10.39.14-1.27,1.12-1.48,1.75-.4,1.9,3.28,6.3,6.15,10.55,6.15,11.04,0,31.68-8.48,40.13-15.58.67-.56.51-1.2-.47-1.1-3.29.33-17.26,3.52-28.52,5.87-1.93.4-3.87.82-5.78.16-3.29-1.14-6.39-2.64-9.08-4.9-2.24-1.88-2.61-4.35-2.28-7.07.76-6.25,5.16-14.18,12.77-22.63.38-.43.36-.85-.22-.85-3.33.03-6.58.67-9.7,1.82-7.66,2.83-15.21,5.95-22.74,9.11-1,.42-1.82,1.06.22,1.45.58.11,1.16.19,1.72.34,1.11.29,1.52.76,1.47,1.91-.08,1.97-1.03,18.23-1.36,26.51-.48,12.29-.96,20.3-.43,26.71.24,2.86.75,3.83,1.74,4.72,2.01,1.81,2.02,3.33.08,5.23-1.34,1.31-3.01,1.81-4.8,1.87-3.46.12-6.92,0-10.35-.58-2.04-.35-2.68-1.08-2.66-3.17.04-4.2,1.55-23.88,1.72-30.08.21-7.63.47-24.74.44-26.73-.05-2.97-.89-2.7-2.76-1.85-2.31,1.05-22.8,10.86-34.3,16.27-1.98.93-3.66,2.36-5.62,3.32-.66.32-.67.89.21,1.05.85.16,1.7.3,2.56.4,1.58.18,1.81.45,1.75,2.08-.08,2.01-1.64,6.93-1.4,8.82.13,1.09.4,1.37,1.26.67,2.71-2.19,6.85-4.86,10.09-6.55.97-.5,1.88-1.1,2.86-1.56,1.79-.85,3.28-.39,4.3,1.3.47.78,1.06,1.43,1.79,1.96,1.09.79,1.88,1.83,2.39,3.07.53,1.27.35,2.12-.83,2.81-2.79,1.62-13.84,8.35-22.05,13.82-1.33.89-1.9,2.14-1.94,3.68-.08,3.7-.09,7.63-.68,11.32-.36,2.25.41,2.63,1.78,1.78,2.26-1.39,4.28-3.13,6.62-4.41,3.99-2.18,8.02-4.29,11.83-6.79,1.95-1.28,3.73-1.15,5.24.65,1.06,1.27,3.05,1.69,3.42,1.82,2.37.81,2.92,2.27,1.66,4.47-.81,1.42-2.07,2.4-3.37,3.33-10.08,7.24-28.58,20.62-29.46,21.28-1.38,1.03-2.3,1.04-3.79.23-1.52-.83-3.03-1.63-4.41-2.7-1.05-.82-2.46-1.02-3.75-1.37-.66-.18-1.11-.52-1.53-1.06-2.12-2.77-2.4-5.96-2.12-9.24.46-5.45,1.13-10.89,1.22-16.36.12-7.15.62-14.28,1.4-21.38.32-2.88.52-5.78,1.09-8.64.25-1.24-.33-2.17-1.16-3.06-1.51-1.62-2.82-2.81-3.84-4.52-1.1-1.84-1.05-3.25-.31-4.93.39-.89.93-1.14,1.88-.94.77.16,1.48.02,2.19-.31,12.59-5.87,25.2-11.67,37.76-17.61,15.83-7.48,32.01-14.2,48.03-21.26,2.6-1.15,5.23-2.24,7.27-4.35.8-.82,2.15-.91,3.17-.47,3.47,1.49,8.07,5.74,10.74,11.37.19.4.5.6.87.24,2.56-2.47,5.38-4.96,8.45-7.45,8.35-6.77,24.71-18.39,31.74-21.45,1.14-.5,1.55-.56,2.9.35,1.24.84,4.67,4.11,7.35,6.67,1.62,1.55,3.31,3,5.33,4.02,2.68,1.35,3.69,3.85,1.41,6.38Z"/>
        <path class="cls-2" d="M87.91,298.12c.03-.75.66-1.36,1.42-1.36.79,0,1.45.66,1.44,1.43-.01.78-.68,1.42-1.47,1.4-.8-.02-1.43-.68-1.39-1.47ZM84.61,298.23c.38,0,.63-.18.66-.59,0-.44-.22-.67-.66-.68-.39,0-.65.19-.67.59-.02.43.24.67.67.68ZM388.36,170.15c.34,0,.61-.27.61-.61s-.27-.61-.61-.61-.61.27-.61.61.27.61.61.61ZM392.59,166.37c.35,0,.63-.28.63-.63s-.28-.63-.63-.63-.63.28-.63.63.28.63.63.63ZM404.3,172.13c.33,0,.6-.27.6-.6s-.27-.6-.6-.6-.6.27-.6.6.27.6.6.6ZM396.82,167.36c.73.01,1.34-.58,1.35-1.31.01-.74-.56-1.33-1.31-1.34-.75,0-1.33.55-1.34,1.3-.01.74.57,1.34,1.3,1.36ZM401.4,165.06c1.21-.03,2.2-1.07,2.18-2.3-.02-1.23-1.1-2.24-2.36-2.21-1.22.03-2.2,1.06-2.17,2.29.02,1.24,1.09,2.24,2.36,2.21ZM359.19,267.07c1.02,1.93.51,3.42-2.11,4.57-1.88.83-20.71,8.66-24.78,10.09-3.22,1.13-3.86,2.91-3.56,5.64.07.64.08,1.28-.1,1.91-.24.82-.76,1.27-1.39,1.17-.66-.11-1.14-.74-1.09-1.57.04-.83.14-1.66.24-2.49.11-1.02.08-2.04-.27-3-.39-1.07-1.56-1.37-2.44-.65-1.02.82-1.84.57-2.26-.7-.45-1.33-.4-2.74-.65-4.11-.37-2.03-.54-2.99-1.78-3.52-1.03-.44-1.78-1.25-1.75-2.37.03-1.33-.51-1.09-1.16-.45-3.64,3.59-7.61,6.83-11.57,10.05-6.36,5.17-21.14,19.24-22.97,20.92-1.1,1.01-3.18,1.44-4.79.54-2.41-1.35-5.37-3.46-7.67-4.33-1.89-.72-2.73-1.53-3.12-3.44-.68-3.32-.86-6.69-.87-10.08-.04-11-.35-21.99-1.01-32.98-.63-10.39-1.78-17.47-2.61-22.87-.18-1.19-.62-2.2-1.49-3-1.39-1.27-1.57-2.58-1.13-4.23.31-1.17,1.19-1.53,2.36-1.43,1.76.15,3.9-.73,5.93-1.85,7.97-4.4,16.31-7.89,25.25-9.83,3.28-.71,6.6-1.09,9.96-1.22,1.73-.07,3.3.32,4.68,1.46.9.75,1.91,1.35,2.94,1.91,3.19,1.74,4.86,5.52,4.39,9.43-.39,3.27-2.21,5.63-4.44,7.83-3.42,3.37-6.83,6.76-10.45,9.92-.83.72-.68,1.6.38,1.44,1.95-.29,3.91-.31,5.85-.16,3.4.27,9.45,1.61,12.89,4.15.41.3.99.02,1.03-.49.2-2.94.37-5.85.5-8.56.41-8.76.16-26.62.16-33.16,0-1.21-.08-2.41-.48-3.55-.4-1.12-.11-2.09.59-2.98,1.1-1.4,2.93-2.01,5.07-2.01,3.64,0,6.36.61,9.67,2.07,1.36.6,1.83,1.81,1.83,3.22,0,1.76-.53,21.14-.9,27.04-.38,6.08-1.67,30.1-1.39,33.43.11,1.32.39,1.45,1.67,1,2.38-.84,7.75-3.63,9.78-4.33,1.5-.52,2.8-.19,3.99.77,2.06,1.65,7.59,7.88,9.11,10.78ZM288.18,228.09c1.12-1.12,2.19-2.3,3.27-3.46.55-.6.21-1.06-.42-.84-3.73,1.27-7.3,2.89-10.66,4.95-.55.33-.88.85-.91,1.6.18,1.24.35,2.57.57,3.89.1.57.45.75.97.39.26-.18,4.35-3.69,7.18-6.52ZM306.9,252.63c-5.58.62-12.29,2.35-23.53,6.53-1.06.39-1.37.94-1.35,1.81.25,3.41.48,6.58.73,9.75.14,1.86.3,3.72.48,5.58.08.84.38.98,1.09.52,6.2-3.99,15.94-11.08,23.36-22.61.62-.96-.03-1.67-.77-1.58ZM407.04,247.85c-1.55-3.38-3.64-6.41-6.27-9.03-1.41-1.4-3.13-1.74-4.94-.91-3.76,1.71-7.67,3.05-11.51,4.53-3.22,1.25-6.41,2.6-9.62,3.87-1.22.48-1.51.28-1.48-1.06.09-4.41.07-7.64.19-11.89.07-2.46,1.02-4.11,3.18-5.11,5.34-2.48,10.67-4.94,16.03-7.38,2.69-1.23,5.44-2.3,8.26-3.2,3.68-1.17,3.65-4.54,2.4-6.8-1.4-2.53-3.24-4.74-5.09-6.95-.82-.98-1.91-1.18-3.12-.85-2.19.59-4.34,2.25-6.71,3.2-3.86,1.54-7.69,3.16-11.54,4.69-1.4.56-1.69.27-1.49-1.25.21-1.6.4-3.21.6-4.82.42-3.49.72-6.99.98-10.5.11-1.45,1.11-2.79,2.47-3.32,5.8-2.24,12.67-4.31,17.33-5.48,3.13-.79,5.03.78,5.44,3.48.09.62.54,1.19,1.02,1.22.89.06,1.28-.85,1.31-2.06.05-1.68.25-3.33.89-4.91.48-1.2.48-2.43.1-3.69-.72-2.38-1.66-4.67-2.77-6.9-.4-.81-.79-1.61-.12-2.49.12-.16.17-.45.11-.64-.1-.37.03-.61.25-.9.47-.61.4-1.35-.12-1.82-.55-.49-1.17-.51-1.77-.12-.6.39-.74,1.15-.39,1.86.17.34-.16.52-.41.3-1.14-1-2.46-1.33-3.9-.87-.87.28-1.63.29-2.49-.07-1.02-.43-1.98.19-2.01,1.29-.02.85-.43,1.22-1.13,1.55-3.11,1.48-6.39,2.48-9.66,3.52-5.72,1.81-11.15,4.4-16.85,6.26-3.66,1.19-7.28,2.55-11.17,2.79-4.17.26-7.1,3.43-5.79,6.22,1.1,2.35,2.39,4.6,3.67,6.86,1.45,2.55,2.98,2.59,6.12,3.22,1.1.22,1.27.43,1.19,1.51-.25,3.51-.5,7.02-.79,10.52-.74,9.21-1.49,18.42-1.84,27.65-.14,3.66-.89,12.77-.65,15.72.14,1.68,1.26,3.01,2.92,3.43,2.7.68,3.71,1.16,5.37,3.27,1.62,2.06,2.77,4.2,5.69,4.95,1.12.29,2.13.13,3.06-.64,1.18-.99,2.54-1.71,3.94-2.36,2.72-1.28,14.9-6.87,18.96-8.41,3-1.14,5.73-2.37,9.03-2.28,1.26.03,1.92-.8,2.93-2.42.56-.9.62-1.86.19-2.8ZM84.11,303.04c-.36.03-.5.02-.63-.38-.26-.79-1.01-1.11-1.72-.85-.68.26-1.03,1.02-.77,1.71.26.71,1.02,1.07,1.78.73.43-.19.54-.12.71.28.21.49.66.64,1.19.52.5-.11.63-.49.65-.94,0-.66-.48-1.13-1.2-1.08ZM260.5,298.34c.51,1.36.27,2.89-.63,4.03-1.97,2.48-4.41,4.04-7.67,4.03-1.65,0-3.29.05-4.92.27-4.05.55-4.68.49-5.34-2.77-.98-4.88-1.46-9.83-1.8-14.78-.53-7.72-1.38-15.5-2.31-23.19-.09-.77-.5-.79-.6.11-.46,3.98-2.19,22.64-3.1,30.73-.16,1.46-.18,3.01-.08,3.82.12.92-.13,1.52-.71,2.41-1.91,2.96-3.6,5.65-8.38,6.08-1.05.1-2.09.31-3.16.28-1.63-.04-2.62-.88-3.24-2.33-2.04-4.77-3.81-9.65-5.58-14.52-.58-1.6-1.15-3.2-1.72-4.8-.39-1.08-1.04-1-1.04.17-.01,4.38.06,9.55.58,14.86.57,5.9,1.16,11.72,1.55,17.63.26,3.88-.83,4.8-3.25,5.11-1.26.16-2.73.27-4.17.36-.34.02-.4.15-.29.43.47,1.25.13,2.46-1.12,3.54-2.74,2.36-9.46,2.02-12.9,1.98-1.44-.01-2.14-.56-2.73-2.19-.89-2.46-2.24-5.6-3.6-8.56-.17-.37-.64-.49-.97-.25-5.36,3.99-11.32,8.34-16.09,11.91-.37.28-.58.71-.57,1.18.14,5.6.31,10.64.51,13.12.21,2.53-1.16,4.64-3.73,5.47-3.33,1.08-6.78,1.31-10.22,1.66-1.38.14-2.44-.78-2.44-2.37,0-.23.02-1.04.07-2.27.02-.62-.15-.84-.48-.4-3.22,4.29-6.5,8.52-10,12.57-4.24,4.9-8.59,9.7-12.87,14.56-3.78,4.3-7.23,8.9-11.34,12.89-3.12,3.03-4.69,6.84-6.28,10.7-.24.59-.46,1.2-.79,1.74-.5.83-1.18.93-1.98.41-.34-.22-.62-.74-1.16-.39-.53.35-.95.79-.95,1.47.01,1.73-.02,3.46.08,5.19.27,4.66.77,9.29,1.13,13.94.14,1.77-.96,3.14-2.53,3.25-1.81.13-3.15-1.23-3.06-3.16.05-1.16,1.3-12.11,1.24-18.62,0-.53,0-1.07-.12-1.58-.11-.53-.5-.9-1.08-.88-.6.02-.6.51-.7.96-.3,1.31-.03,2.61.09,3.91.17,1.96-.55,3.22-1.54,3.22-.7,0-1.08-.53-1.22-1.09-.38-1.51-.08-3.01.11-4.49.36-2.89-.02-5.48-2.29-7.58-2.2-2.04-4.05-3.4-4.94-4.12-.94-.76-1.2-1.73-.73-2.84,1.04-2.47,2.26-4.85,3.53-7.21.3-.55.76-.94,1.37-1.17,1.31-.49,1.9-1.45,1.82-2.86-.24-3.96-.72-15.69-.9-22.59-.15-5.88-2-27.54-2.49-32.8-.29-3.14-.52-6.28-.55-9.44-.02-2.87-1.29-4.25-3.29-5.51-1.96-1.23-2.61-2.99-2.32-4.84.06-.41.12-.61-.43-.7-.89-.14-1.4-.88-1.3-1.67.1-.72.73-1.23,1.48-1.19.68.04,1.45.57,1.45,1.39,0,.57.32.77.93.77.7,0,1.59-.53,2.4-1.23,4.29-3.71,8.81-7.14,13.62-10.14,6.54-4.09,13.32-7.7,20.8-9.77,3.07-.85,5.89-1.32,7.5-.67,2.93,1.19,5.82,2.5,8.03,4.82,2.5,2.61,3.33,5.92,3.48,9.45.25,5.85-2.07,10.68-5.8,14.99-2.3,2.66-6.21,6.36-6.37,6.54-.46.48-.17.86.41.72,1.03-.25,2.07-.46,3.09-.77,4.49-1.37,8.64-.41,12.64,1.72.96.51,1.84,1.12,2.67,1.81.32.27.81.04.82-.37.21-5.5.39-10.07.45-12.1.23-7.03.59-37.77.35-40.02-.2-1.87.81-3.19,2.34-4.13,1.05-.64,3.36-1.65,5.35-2.08,2.93-.63,5.14-.47,6.38-.59,1.83-.19,3.31.65,4.26,2.12,4.7,7.29,14.68,24.69,19.18,33.64,1.57,3.11,3.29,6.67,5.03,10.36.12.26.51.18.51-.11-.03-6.01-.12-12.64-.3-18.19-.44-13.64-1.86-30.31-2.19-34.68-.13-1.68-.34-3-.85-4.45-.36-1.02-.31-1.76.49-2.23,3-1.76,5.17-2.49,7.51-2.22,1.1.13,2.2.08,3.3-.04,2.71-.3,4.72.9,6.15,3.14,1.71,2.68,3.14,5.53,4.54,8.39,2.95,6.02,5.36,12.56,7.62,18.86.34.95.83.96.98-.11.19-1.34,1.15-14.02,2.25-21.58.75-5.14,1.48-10.27,2.24-15.41.16-1.05.3-2.09.07-3.15-.33-1.52.11-2.87,1.02-4.09.98-1.3,1.99-2.46,3.38-3.29,2.56-1.52,6-2.03,15.08-.81,1.63.22,2.45,1,2.63,2.59.64,5.65,3.81,22.21,5.24,32.12,1.39,9.67,3.64,31.26,4.72,35.68.19.78.45,1.55.73,2.31ZM111.26,318.86c4.98-5.75,9.74-11.66,13.46-18.33.65-1.17,1.33-2.33,1.8-3.59.45-1.22-.12-1.6-1.18-1.06-3.23,1.65-9.26,5.54-14.3,9.45-.98.76-1.28,1.76-1.25,2.95.04,1.56.34,8.31.34,10.13,0,.79.51,1.16,1.13.45ZM138.93,328.13c-2.85,1.33-7.42,3.77-10.74,5.66-4.66,2.65-9.62,5.72-14.18,8.53-1.95,1.21-2.97,2.94-2.8,5.32.2,3.03.65,12.13.94,16.8.06.98.58,1.48,1.5.55,1.46-1.47,12.27-11.99,20.33-23.34,2.72-3.83,5-7.85,6.17-12.44.27-1.07-.32-1.5-1.21-1.09ZM167.17,317.1c3.41-2.4,7.09-4.97,10.37-7.19.44-.3.58-.88.33-1.34-2.2-4.11-4.44-8.31-5.18-9.77-1.29-2.54-2.68-5.02-4.2-7.43-.64-1.01-1.25-.79-1.31.27-.19,3.54-.65,15.18-.75,18.76-.03,1.23-.04,3.48-.02,6.29,0,.4.45.63.77.4ZM86.7,308c-.07-.36-.26-.61-.66-.59-.39.03-.59.29-.57.67.02.35.25.54.6.54.39,0,.59-.23.62-.62ZM90.75,311.74c0-1.27-1.09-2.34-2.36-2.32-1.28.02-2.35,1.08-2.36,2.34,0,1.27,1.06,2.32,2.36,2.32,1.28,0,2.36-1.08,2.36-2.34ZM348.31,137.23c0,.23-.18.41-.41.41s-.41-.18-.41-.41.18-.41.41-.41.41.18.41.41ZM343.14,181.22c-.77.02-1.25.55-1.22,1.33,0,.97.59,1.48,1.27,1.46.8-.02,1.53-.74,1.51-1.46-.02-.83-.65-1.36-1.56-1.33ZM338.07,120.8c.22,0,.39-.17.39-.39s-.17-.39-.39-.39-.39.17-.39.39.17.39.39.39ZM398.03,77.65c.79.01,1.54-.61,1.54-1.28,0-.55-.75-1.43-1.24-1.44-.83-.02-1.47.5-1.47,1.19,0,1.03.37,1.52,1.17,1.53ZM398.46,84.15c0,.82.58,1.47,1.34,1.5.58.02,1.35-.71,1.36-1.3.01-.68-.66-1.52-1.23-1.53-.81-.02-1.47.58-1.47,1.33ZM402.23,77.26c.45,0,.88-.11.89-.64,0-.43-.22-.82-.72-.84-.42-.02-.8.26-.81.63-.02.34.06.85.64.85ZM409.62,77.27c.74,0,1.49-.68,1.47-1.33-.01-.57-.82-1.36-1.39-1.37-.73,0-1.37.56-1.36,1.19.02,1.06.4,1.51,1.28,1.51ZM350.12,133.89c.91,0,1.78-.7,1.8-1.47.04-1.12-.76-1.96-1.88-1.96-.8,0-1.57.78-1.58,1.57-.02,1.45.74,1.83,1.66,1.86ZM332.17,135.58c-.71.03-.96.32-.92.77.08.96.33,1.15.84,1.11.57-.04.85-.41.83-.99-.02-.49-.22-.91-.75-.89ZM411.15,84.76c.06,1.63-.62,14.67-.7,16.51-.16,3.86-1.32,36.07-1.38,37.82-.09,2.75-.23,5.49-.24,8.24,0,1.41-.08,2.84-.33,4.23-.23,1.26-.96,2.02-2.29,2.39-1.3.36-2.49.95-3.71,1.49-1.91.85-3.04,2.11-4.2,4.02-.78,1.28-1.74.8-2.26.06-.81-1.16-1.57-1.45-2.32-.51-1.35,1.7-2.36,1.87-4.37,1.7-1.51-.13-2.49.07-3.87.57-3.77,1.36-28.11,9.96-30.47,10.89-.5.2-.9.55-1.31.88-.77.61-1.54.77-2.23.84-.56.06-1.13.12-1.6.44-.63.42-1.07.8-1.51,1.18-.71.61-1.26,1.48-1.73,2.67s-1.31,1.97-2.62.62c-.9-.92-1.58-.74-2.2-.17-1.52,1.37-1.14,4.02-1.07,5.78.04,1.01-.03,2.02-.07,3.02-.04.92.11,1.88-.48,2.68-.58.78-1.47.41-1.85-.39-.42-.9-.11-2.38-.07-3.35.09-1.8.17-3.63.33-5.43.11-1.22-.01-2.44-1.34-2.93-.87-.32-1.28-.83-1.57-2.03-.14-.6-.42-1.27-.78-1.92-3.5-6.23-11.26-19.85-13.95-24.43-1.77-3.01-14.97-25.95-15.64-27.22-1.52-2.84,1.47-6.24,4.74-4.77,2.47,1.12,13.72,6.08,16.49,7.22.62.26,1.1.33,1.75.06,1.74-.73,3.34-.19,4.13,1.57.42.93.82,1.22,1.69,1.65.81.4,2.9,1.24,3.68,1.62.51.25.86.39,1.1-.47.69-2.47,3.01-9.17,4.03-12.69.78-2.7,5.66-18.07,6.2-19.7.64-1.9,3.44-2.86,5.31-1.24,3.39,2.93,12.09,10.49,16.59,14.51,1.75,1.57,3.53,3.1,5.3,4.65.42.37.74.52,1.26,0,9.27-9.07,17-16.87,23.05-25.97,1.39-2.09,2.65-4.26,3.85-6.46,1.55-2.86,6.48-2.26,6.66,2.36ZM403.23,97.76c-2.14,2.66-9.63,11.6-11.67,13.67s-8.04,7.89-9.41,8.94c-1.51,1.15-1.21,2.93-1.23,6.13,0,1.22.21,2.43.07,3.67-.09.82-.5,1.21-1.09,1.25-.54.03-1.08-.26-1.19-1.04-.3-2.02-1.05-3.88-2.13-5.61-.85-1.35-2.09-2.31-3.29-3.33-2.59-2.2-15.91-13.95-18.72-16.48-.27-.24-.44-.19-.55.15-1.33,4.09-3.61,10.87-5.13,15.9-1.35,4.48-3.55,11.18-3.55,14.35,0,3.63.24,5.52.24,6.36,0,.41-.33.74-.74.74-.45,0-.61.13-.6.39s0,.4,0,.64c0,.48-.35.87-.78.87s-.69-.4-.78-.87c-.59-2.94-3.72-5.76-7.56-7.31-1.9-.77-3.78-1.58-5.66-2.38-2.93-1.25-8.71-3.88-11.67-5.08-.57-.23-.75.01-.46.56,1.56,2.94,8.53,14.83,12.1,21.1,1.55,2.72,8.46,14.84,10.74,18.75.43.74.85.84,1.63.44.39-.2,26.97-9.61,28.09-10,1.76-.61,18.93-6.83,21.91-7.88,1.94-.69,3.63-1.13,5.51-2.01,1.18-.55,2.51-.92,3.96-1.34.41-.12.57-.36.59-.75.09-2.32,1.03-26.03,1.15-29.76.07-1.94.67-17.61.68-19.93,0-.45-.21-.42-.45-.12ZM416.73,82.4c-1.93-.11-3.14,1.22-3.04,2.61-.16,1.77,1.25,2.81,2.7,2.89,1.49.09,2.7-1.18,2.71-2.74,0-1.79-1.13-2.7-2.37-2.76ZM414.05,78.77c-.04-.47-.29-.63-.78-.61-.47.02-.65.21-.61.66.04.37.14.74.61.7.42-.04.82-.19.78-.74ZM336.39,139.08c-.95-.02-1.98.82-1.99,1.63-.01,1,.8,1.94,1.71,1.99.88.05,1.76-.81,1.8-1.74.03-.86-.77-1.86-1.52-1.88ZM341.69,162.18c-1.4.02-2.49,1.22-2.49,2.8,0,1.57,1.3,2.91,2.8,2.88,1.41-.02,2.64-1.37,2.68-2.85.04-1.41-1.16-2.87-2.99-2.84ZM350.71,140.89c-1.12,0-1.8.67-1.8,1.78,0,.93.74,1.63,1.72,1.63,1.11,0,1.75-.68,1.73-1.85-.01-.86-.75-1.56-1.64-1.56ZM400.98,79.57c-.19,0-.35.16-.35.35s.16.35.35.35.35-.16.35-.35-.16-.35-.35-.35ZM399.18,89.72c-.19,0-.34.15-.34.34s.15.34.34.34.34-.15.34-.34-.15-.34-.34-.34ZM414.05,90.03c-.4,0-.72.32-.72.72s.32.72.72.72.72-.32.72-.72-.32-.72-.72-.72ZM396.57,161.39c-.35,0-.63.28-.63.63s.28.63.63.63.63-.28.63-.63-.28-.63-.63-.63ZM347.84,163.63c-.41,0-.74.33-.74.74s.33.74.74.74.74-.33.74-.74-.33-.74-.74-.74ZM350.25,176.2c-.42,0-.75.34-.75.75s.34.75.75.75.75-.34.75-.75-.34-.75-.75-.75ZM354.51,177.42c-.27,0-.49.22-.49.49s.22.49.49.49.49-.22.49-.49-.22-.49-.49-.49Z"/>
      </g>
    </g>
  </g>
</svg>