<?xml version="1.0" encoding="UTF-8"?>
<svg xmlns="http://www.w3.org/2000/svg" version="1.1" viewBox="0 0 1000 500">
  <defs>
    <style>
      .cls-1 {
        fill: lime;
      }

      .cls-2 {
        fill: #fff;
      }
    </style>
  </defs>
  <!-- Generator: Adobe Illustrator 28.7.1, SVG Export Plug-In . SVG Version: 1.2.0 Build 142)  -->
  <g>
    <g id="Layer_1">
      <g>
        <path class="cls-1" d="M171.07,326.43c0,2.15.11,4.1.31,6.03.15,1.46-1.01,2.38-2.03,2.35s-2.04-.77-1.8-2.58c.33-2.57.85-5.25.86-7.87,0-1.37-.3-3.08-1.17-4.38-2.08-3.11-2.95-6.62-2.65-10.37.16-1.98,1.22-3.08,3.19-3.39,136.79-21.63,547.53-24.62,647.2-2.78,1.12.25,1.99.83,2.3,1.98,1.91,7.09,1,11.06.78,11.68-.72,1.96-1.95,2.81-4.24,2.26-4.56-1.1-19.4-4.81-31.59-7.3-2.39-.49-2.58-2.01.12-1.61,1.9.28,12.96,2.21,23.24,3.76,1,.15,2,.17,3,.2,1.4.04,1.83-1,.15-1.41-1.25-.3-2.5-.56-3.76-.83-102.13-21.77-526.16-19.65-630.71,10.03-2.46.7-3.17,1.88-3.18,4.23ZM206.76,204.01c.34.14.62.02.76-.34.13-.33,0-.56-.32-.71-.35-.11-.63,0-.76.34-.12.32,0,.59.32.71ZM200.23,203.38c.35.14.6,0,.78-.4.06-.29-.02-.58-.37-.69-.35-.11-.62.05-.74.39-.1.31.01.57.33.7ZM199.19,211.77c.33.17.6.03.79-.28.09-.34.04-.62-.31-.77-.32-.14-.57-.04-.72.26-.16.33-.08.63.25.79ZM203,204.07c1.02.45,2.18.02,2.61-.99.44-1-.03-2.18-1.04-2.61-1-.43-2.2.05-2.61,1.04-.41.97.05,2.11,1.03,2.55ZM206.7,205.61c-.24.6.04,1.25.65,1.49.6.24,1.25-.04,1.49-.64.24-.6-.04-1.25-.64-1.49-.6-.24-1.26.04-1.5.64ZM213.57,210.39c.3.11.52,0,.67-.28.09-.32.02-.58-.31-.71-.29-.11-.54,0-.66.28-.14.32-.03.57.3.7ZM209.74,208.28c.28.14.51.07.69-.21.12-.3.1-.57-.23-.73-.28-.13-.53-.05-.69.21-.18.31-.07.57.23.73ZM339.13,223.1c.42.18.8.03,1.3-.27,1.06-.66,6.6-3.03,9.89-4.06,1.47-.46,2.98-.84,4.39-1.5,1.35-.63,1.69-1.68.78-2.79-1.22-1.49-2.54-2.9-3.94-4.22-.73-.69-1.65-.8-2.56-.38-1.26.57-6.62,4.89-10.05,11.79-.32.65-.19,1.26.21,1.43ZM212.6,207.09c.32.11.58.02.7-.3.12-.29,0-.53-.28-.66-.32-.14-.57-.03-.7.3-.12.3,0,.51.28.66ZM298.85,273.48c-.55-.22-1.21.06-1.44.62-.29.7-.03,1.56.55,1.8.6.25,1.39-.07,1.63-.66.25-.63-.11-1.51-.74-1.76ZM209.67,267.24c.05-2.16-4.02-2.99-6.95-2.81-1.86.11-3.72.23-5.58.38-2.05.16-4.1.38-6.15.54-1.34.1-1.47-.11-.98-1.37.32-.81,7.04-14.15,9.37-18.47,2.35-4.35,12.3-22.09,15.58-27.01,1.32-1.97.56-4.2-1.19-5.76-2.47-2.19-5-4.29-8.07-5.64-.4-.17-.97-.34-1.1-.65-.33-.79-.74-1.28-1.6-1.59-.73-.26-1.34-.44-1.76.09-.44.55-.37,1.15.26,1.72.44.4.53.84.3,1.37-.33.75-10.53,20.28-13.21,25.37-2.5,4.74-12.36,22.3-14.52,26.75-1.26,2.6-2.25,5.34-4.35,7.5-1.1,1.13-1.12,2.68-.55,4.18,1.18,3.07,2.63,5.99,4.34,8.8,1.41,2.31,2.5,2.83,5.14,2.34,7.56-1.4,15.17-2.48,22.75-3.72,2.3-.37,4.6-.73,6.89-1.12,2.17-.37,3.2-1.62,3.22-3.81.01-1.66-.22-3.26-1.32-4.59-.71-.85-.55-1.67-.53-2.5ZM198.24,206.9c.35.09.64.03.78-.33.16-.41-.04-.71-.4-.88-.34-.15-.64-.01-.76.32-.16.4.05.69.39.88ZM357.49,246.32c-.22.51,0,1.11.51,1.34.53.25,1.16.01,1.39-.53.23-.53-.04-1.17-.58-1.38-.52-.2-1.1.04-1.32.56ZM193.68,207.04c.38.12.67.02.84-.35.14-.31.06-.59-.25-.74-.36-.18-.67-.08-.85.28-.17.34-.06.61.26.8ZM195.58,215.78c.98.44,2.17-.04,2.61-1.06.39-.92-.05-1.98-1.02-2.41-.99-.44-2.15-.01-2.57.96-.41.94.03,2.08.98,2.51ZM197.4,210.38c.59.24,1.33-.07,1.58-.65.25-.6-.04-1.31-.64-1.58-.6-.27-1.32,0-1.59.6-.28.62.02,1.38.65,1.63ZM195.21,211.52c.32.09.56-.02.67-.35.1-.3-.03-.53-.32-.64-.34-.13-.57.01-.68.34-.1.3.02.51.32.65ZM385.59,232.97c-1.26-1.51-2.11-3.24-2.88-5.03-1.26-2.96-2.88-6.75-3.59-7.84-.76-1.19-1.11-1.28-2.19-1.27-6.66.03-23.7,3.7-32.69,6.25-3.32.94-6.43,1.98-9.34,3.08-.43.16-.55-.04-.57-.47-.19-5.42-2.41-10.41-4.68-12.79-.67-.7-1.77-1.09-2.69-.71-2.36.98-4.82.95-7.29.98-15.2.15-30.41-.03-45.61.52-12.05.44-24.11.75-36.17,1.12-.68.02-1.29-.11-1.85-.5-.69-.49-1.21-.47-1.83.1-1.17,1.09-1.69,2.2-1.44,4.04.23,1.71.86,3.11,1.52,4.92.36.99.5,1.93-.12,2.84-1.43,2.08-2.59,4.33-3.83,6.52-3.06,5.4-5.89,10.92-8.44,16.59-1.95,4.34-4.34,8.45-6.58,12.64-1.35,2.52-2.22,5.17-1.48,8.1.15.57.39,1,.86,1.37.91.72,1.96,1.36,2.52,2.38.73,1.33,1.66,2.49,2.59,3.67.91,1.15,1.65,1.46,3.1,1.11.93-.22,20.29-4.57,30.81-6.9,1.36-.3,2.69-.65,3.83-1.51,1.75-1.32,1.81-2.68.2-4.13-.25-.23-1.69-1.25-2.11-2.62-.58-1.95-1.97-2.67-3.96-2.31-3.9.69-7.83,1-11.76,1.37-2.3.22-4.51.91-6.79,1.25-1.39.21-1.87-.36-.81-2.03,1.73-2.74,3.09-5.88,4.42-8.8.56-1.22,1.44-2.02,2.81-2.28,8.42-1.55,19.55-3.14,22.33-3.48,1.18-.14,1.61-.76,1.62-1.95.02-1.16-.26-2.26-.86-3.27-.4-.68-.65-1.39-.76-2.18-.23-1.7-1.27-2.57-2.98-2.51-.94.03-1.88.2-2.82.27-3.17.24-7.39.95-10.3,1.77-.93.26-1.04-.05-.78-.97.46-1.59,3.39-4.98,4.14-6.56.61-1.28.52-1.57-.68-2.26-.65-.37-1.28-.78-1.91-1.2-.64-.43-.44-.88.2-.91,1.89-.09,3.73-.66,5.62-.72,11.04-.38,30.75-1.2,32.95-1.24,1.78-.04,2.54.03,1.57,2.42-.65,1.59-6.72,15.16-9.5,21.18-2.26,4.89-10.21,20.08-11.68,23.42-.73,1.66-.48,2.46,1.04,3.44,2.54,1.64,5.26,2.92,8.06,4.01,1.45.56,2.95.74,4.47.15,2.2-.85,2.71-2.07,1.73-4.2-.49-1.05-.56-2,.23-4.37,1.77-5.3,4.9-11.53,9.49-21.17,3.09-6.5,9.43-19.15,10.16-20.69.43-.9.27-1.42-.52-2.03-.4-.31-.84-.58-1.26-.86-1.5-1-.62-1.24.32-1.23,7.09.06,14.19.15,21.27.52,2.88.15,5.7.75,8.37,1.87.29.12.32.55.08.67-9.07,4.16-15.37,9.02-18.14,13.78-1.2,2.05-1.74,4.16-.6,6.43,1.37,2.72,3.34,4.99,5.57,7.02,1.3,1.19,2.99,1.52,4.67,1.86,9.79,1.98,22.04,4.22,24.78,5.08.81.26.72.82,0,1.04-9.18,2.77-28.56,2.47-37.37-1.31-3.39-1.45-5.92-5.25-6.31-8.52-.13-1.08-.99-1.25-1.53-.28-1.52,2.71-2.39,5.61-2.6,8.71-.27,3.8.5,7.24,3.51,9.88.82.72,1,1.32,1,2.7,0,1.1-.4,2.83-.46,3.91-.04.7.37,1.4,1.03,1.38.94-.03,1.41-.94,1.38-1.68-.02-.48-.06-.97-.06-1.45-.02-1.22.41-1.1,1.39-.38.84.61,1.69,1.11,2.79.91.95-.18,1.81.65,1.81,1.47,0,.62-.23,1.19-.23,1.83,0,.55.29,1.02.91,1.04.61.02,1.06-.52,1.06-1.03,0-.92-.27-1.37-.27-2.24,0-1.01.63-1.46,1.96-.51.81.57,1.88.77,2.82.61,2.31-.39,5.21-.28,7.07-.07,9.33,1.07,20.75,1.32,27.26-1.18,3.41-1.31,6.35-3.09,8.37-6.19.57-.88,1.14-2.39,1.4-3.41.72-2.76-3.11-9.75-7.88-12.82-5.99-3.85-19.23-6.12-23.9-7.19-.71-.16-1.02-.8-.2-1.24,9.26-4.97,24.44-9.07,35.86-10.06,1.4-.12,1.41.52.79,1.26-1.4,1.65-2.53,2.84-4.03,4.37-.88.9-.22,1.87.9,1.32,2.85-1.4,6.16-2.96,10.62-3.58,4.92-.68,8.2-1.69,12.04-3.45,2.68-1.24,2.73-3.58,1.06-5.57Z"/>
        <path class="cls-2" d="M538.83,218.02c-.24-.1-.34-.3-.25-.54.09-.26.3-.38.58-.29.28.1.34.32.28.59-.13.25-.34.35-.6.24ZM540.85,210.55c.26.12.48.06.62-.21.13-.3.04-.52-.25-.65-.26-.12-.5-.06-.62.2-.14.28-.03.53.25.66ZM537.88,220.15c-.37.86.05,1.89.92,2.26.87.37,1.91-.04,2.28-.9.37-.86-.05-1.91-.92-2.26-.87-.36-1.91.05-2.28.9ZM537.84,214.1c.34,0,.4.07.4.39,0,.39.26.63.65.7.37.07.57-.15.72-.45.19-.45,0-.91-.5-1.08-.25-.09-.34-.13-.32-.44.05-.62-.36-1.05-.92-1.08-.54-.02-1,.39-1.02.93-.03.56.38,1.02.99,1.01ZM543.64,212.84c.53.24,1.17,0,1.41-.52.23-.52-.02-1.16-.56-1.39-.52-.22-1.12,0-1.36.51-.25.53-.02,1.16.52,1.4ZM825.33,209.5c.28.12.6,0,.72-.29.12-.28,0-.6-.29-.72-.28-.12-.6,0-.72.29-.12.28,0,.6.29.72ZM828.38,211.74c.58.26,1.27,0,1.53-.58.26-.59,0-1.26-.59-1.52-.6-.27-1.25-.02-1.52.58-.26.59,0,1.26.57,1.53ZM820.66,211.07c.27.12.58,0,.69-.28.12-.27,0-.58-.28-.69-.27-.12-.58,0-.69.28-.12.27,0,.58.28.69ZM834.21,207.81c-.99-.4-2.12.09-2.52,1.09-.4,1,.11,2.16,1.12,2.58.97.39,2.12-.1,2.53-1.09.4-.99-.11-2.17-1.13-2.57ZM832.78,214.92c.58-.33.78-.94.53-1.49-.27-.58-.76-.81-1.37-.7-.61.11-.99.67-.95,1.35.02.33-.31.36-.43.1-.57-1.19-1.51-1.91-2.81-2.03-.79-.07-1.4-.32-1.96-.9-.67-.69-1.65-.52-2.05.34-.31.67-.76.83-1.43.85-2.99.11-5.95-.2-8.91-.5-5.19-.51-10.41-.3-15.59-.78-3.33-.3-6.69-.46-9.87-1.6-3.42-1.22-6.84.31-6.75,2.98.07,2.25.33,4.49.58,6.73.29,2.53,1.49,3.09,3.78,4.66.8.55.87.78.43,1.62-1.4,2.71-2.81,5.43-4.23,8.13-3.74,7.1-7.49,14.19-10.94,21.44-1.37,2.88-5.09,9.89-5.9,12.32-.46,1.39-.02,2.83,1.16,3.74,1.93,1.47,2.57,2.2,3.17,4.45.59,2.2.77,4.3,2.85,5.9.79.61,1.66.84,2.66.53,1.29-.39,2.61-.49,3.95-.54,2.61-.09,14.25-.38,18.01-.22,2.78.12,5.39.07,7.99,1.27.99.46,1.8.02,3.16-.93.75-.52,1.13-1.27,1.11-2.17-.08-3.23-.71-6.36-1.92-9.36-.64-1.6-1.9-2.46-3.63-2.42-3.59.08-7.16-.19-10.74-.32-3-.11-6-.12-9-.21-1.14-.03-1.3-.3-.82-1.36,1.58-3.49,2.68-6.07,4.22-9.43.89-1.94,2.22-2.93,4.29-2.99,5.11-.15,10.21-.29,15.32-.4,2.57-.06,5.13.03,7.69.28,3.34.33,4.47-2.38,4.25-4.61-.25-2.5-.97-4.9-1.68-7.29-.32-1.07-1.12-1.6-2.2-1.75-1.95-.28-4.24.31-6.45.26-3.61-.09-7.21-.11-10.82-.21-1.31-.03-1.44-.36-.76-1.5.72-1.21,1.42-2.43,2.13-3.64,1.53-2.64,2.97-5.34,4.38-8.05.58-1.12,1.84-1.85,3.11-1.8,5.4.2,11.59.9,15.71,1.56,2.77.44,4,2.59,4,4.95,0,.55.37,1.07.78,1.14.77.13,1.18-.63,1.31-1.67.18-1.46.86-2.53,1.6-3.26.8-.79,1.21-1.78,1.34-2.91.24-2.15.27-4.3.15-6.46-.04-.79-.08-1.56.76-2.02.15-.08.28-.3.31-.47.05-.33.23-.48.51-.63ZM680.61,242.6c-2.2,8.2-7.8,26.2-8.45,30.09-.11.66-.17,1.34-.2,2.02-.06,1.28-.76,2.46-1.89,3.07-2.45,1.33-4.97,1.73-7.61.54-1.06-.48-2.13-.93-3.25-1.24-4.27-1.18-4.66-1.24-3.84-4.82.89-3.89,2.05-7.71,3.38-11.48,2.27-6.45,4.29-13.08,6.22-19.64.19-.65-.12-.8-.52-.12-1.73,3.02-9.51,17.32-13,23.46-.63,1.11-1.18,2.34-1.37,3.02-.22.78-.63,1.17-1.39,1.68-2.54,1.71-4.81,3.27-8.77,1.99-.87-.28-1.77-.47-2.62-.86-1.28-.59-1.79-1.6-1.79-2.97,0-4.51.27-9.01.52-13.5.08-1.47.18-2.95.27-4.42.06-1-.49-1.16-.89-.23-1.51,3.5-3.22,7.64-4.63,12.06-1.56,4.9-3.09,9.75-4.8,14.61-1.12,3.18-2.3,3.55-4.34,2.96-1.47-.42-3.22-1.04-4.8-1.63-.38-.14-.78.05-.98.4-.35.61-.98,1.05-1.9,1.29-3.04.79-8.15-2.05-10.81-3.4-1.12-.56-1.45-1.26-1.28-2.75.24-2.22.4-5.12.47-7.89.01-.44-.38-.77-.81-.69-5.7,1.06-11.98,2.16-17.04,3.1-.34.06-.62.29-.77.61-2.06,4.45-3.87,8.48-4.66,10.5-.81,2.05-2.69,3.17-5.01,2.83-3.01-.44-5.79-1.58-8.6-2.62-1.13-.42-1.61-1.55-.99-2.79.27-.55,2.71-5.07,5.77-10.73.19-.35.06-.65-.32-.43-3.18,1.81-6.38,3.57-9.66,5.17-4.3,2.09-8.65,4.08-12.97,6.13-3.82,1.81-7.49,3.93-11.44,5.44-3,1.15-5.17,3.27-7.37,5.43-.34.33-.74.99-1.21.99-.8,0-.73-1.72-1.72-1.72-.65,0-.9.48-.9,1.07,0,1.28-.04,2.55.02,3.83.16,3.44.49,6.86.72,10.3.09,1.31-.74,2.31-1.89,2.38-1.34.08-2.31-.93-2.23-2.36.05-.85,1.06-8.93,1.06-13.74,0-.39,0-.79-.07-1.17-.08-.39-.2-.66-.63-.66-.71.01-.77.99-.72,1.58.1,1.27-.25,2.1-1.09,2.09-.58,0-1.05-1.02-1.05-1.66,0-1.8.95-2.79.95-5.4,0-3.06-1.22-4.47-2.32-6.57-.37-.71-.24-1.6.34-2.15,1.42-1.37,2.94-2.63,4.49-3.85.36-.29.79-.42,1.27-.39,1.03.05,1.71-.43,2.07-1.41.99-2.75,4.08-10.86,5.96-15.58,1.61-4.03,6.66-19.26,7.86-22.98.72-2.22,1.47-4.42,2.38-6.57.82-1.95.36-3.26-.63-4.7-.97-1.41-.9-2.79-.17-3.96.16-.26.26-.38-.09-.6-.56-.35-.69-1.01-.39-1.51.28-.46.85-.62,1.35-.38.45.22.82.81.58,1.36-.16.38,0,.62.41.79.5.22,1.33.09,2.13-.18,4.17-1.43,8.5-2.35,12.86-2.99,5.36-.79,10.74-1.18,16.15-.45,2.33.32,4.38.82,5.28,1.73,1.64,1.66,3.22,3.39,4.05,5.61.94,2.5.53,4.99-.39,7.42-1.53,4.04-4.52,6.64-8.3,8.48-2.33,1.14-6.06,2.51-6.23,2.58-.45.19-.37.53.07.61.77.13,1.54.29,2.32.38,3.36.37,5.86,2.16,7.93,4.67.68.83,1.3,1.72,1.7,2.71.24.6.71.62,1.01.05.81-1.5,1.45-2.69,1.85-3.43,2.88-5.39,14.93-29.21,15.61-31.06.56-1.54,1.85-2.18,3.41-2.32,1.06-.1,3.25,0,4.97.43,2.53.64,4.19,1.61,5.2,1.98,1.5.55,2.33,1.77,2.51,3.28.87,7.49,1.98,24.87,2.06,33.57.03,3.79,0,8.21-.1,12.7,0,.3.4.39.52.12,2.19-5.15,4.64-11.06,6.57-15.98,4.32-11.04,8.9-24.83,10.13-28.43.47-1.39.76-2.51.84-3.85.06-.94.36-1.51,1.16-1.61,2.91-.37,4.87-.23,6.6.71.88.48,1.8.89,2.76,1.17,2.29.68,3.5,2.34,3.87,4.62.45,2.73.61,5.49.75,8.25.3,5.82-.02,11.86-.37,17.66-.05.87.33,1.05.82.25.61-1,5.72-10.79,9.19-16.45,2.35-3.84,4.7-7.69,7.06-11.53.49-.79.95-1.57,1.13-2.5.26-1.33,1.08-2.25,2.22-2.91,1.22-.71,2.43-1.28,3.83-1.47,2.56-.34,5.49.43,12.31,4.52,1.23.74,1.61,1.64,1.21,2.96-1.43,4.73-4.56,19.03-6.82,27.44ZM566.7,248.05c-1.95.06-5.15.33-7.5.6-3.3.37-6.88.9-10.17,1.4-1.41.21-2.41.95-2.9,2.35-.62,1.78-2.6,7.07-3.57,9.8-.2.57-.03.98.72.68,1.19-.48,9.92-3.83,17.29-8.33,2.49-1.52,4.77-3.25,6.56-5.58.42-.54.19-.93-.42-.91ZM567.88,222.85c.53-.56.31-.89-.39-.84-2.12.14-6.27.84-9.89,1.79-.7.18-1.1.65-1.36,1.3-.34.85-1.74,4.56-2.16,5.54-.18.43,0,.74.5.5,4.01-1.94,7.95-4.03,11.49-6.77.62-.48,1.26-.95,1.8-1.52ZM590.05,254.44c-.15.32.11.67.45.62,3.56-.56,7.39-1.15,10.78-1.62.48-.07.82-.48.81-.96-.14-4.03-.27-8.15-.29-9.56-.03-2.47-.17-4.94-.43-7.4-.11-1.04-.68-1.09-1.12-.29-1.5,2.69-6.33,11.58-7.78,14.33-.5.94-1.36,2.69-2.42,4.88ZM764.19,278.44c.15,1.89-.76,2.9-3.25,2.93-1.78.02-19.49-.18-23.24-.43-2.96-.2-3.6.67-3.37,3.04.05.56.05,1.11-.12,1.66-.22.71-.68,1.09-1.22.99-.57-.1-.93-.66-.93-1.37,0-1.51.38-2.66.38-4.06,0-1.7-.2-2.33-1.28-2.03-1.1.31-1.44-.43-1.44-1.59,0-2.3.43-4.46.43-5.68,0-.53-.16-.95-.56-1.37-.67-.7-1-1.61-.59-2.49.05-.12.19-.38.39-.76.1-.19-.13-.31-.38-.14-1.13.77-2.31,1.41-3.54,1.89-4.13,1.62-8.41,2.84-12.68,4.06-6.85,1.95-23.47,8.12-25.5,8.83-1.22.43-3.04.06-4.01-1.2-1.46-1.9-3.1-4.6-4.64-6.08-1.27-1.22-1.66-2.16-1.32-3.81.6-2.89,1.61-5.64,2.76-8.34,3.73-8.8,7.26-17.68,10.49-26.67,3.06-8.51,4.56-14.56,5.75-19.15.26-1.02.26-1.97-.16-2.91-.68-1.49-.37-2.6.54-3.76.65-.83,1.48-.81,2.37-.34,1.35.72,3.36.76,5.37.56,7.87-.78,15.72-.71,23.52.8,2.86.55,5.65,1.39,8.37,2.43,1.41.54,2.53,1.39,3.23,2.77.46.9,1.06,1.73,1.69,2.54,1.95,2.48,1.98,6.07.28,9.04-1.43,2.48-3.69,3.74-6.22,4.73-3.89,1.52-7.76,3.06-11.74,4.34-.91.29-1.09,1.04-.19,1.28,1.65.44,3.23,1.09,4.73,1.88,3.31,1.74,9.42,6.31,9.76,10.25.04.44.39.45.61.02,1.93-3.7,3.88-7.52,5.57-11,3.32-6.85,9.24-21.19,11.49-26.41.41-.96.76-1.95.83-3,.07-1.03.63-1.71,1.49-2.17,1.36-.74,3.03-.6,4.74.13,2.9,1.25,4.87,2.67,7.01,4.97.88.95.84,2.07.36,3.2-.61,1.4-7.66,16.69-9.98,21.28-2.39,4.72-11.64,23.45-12.56,26.21-.36,1.09-.19,1.29.99,1.37,2.19.15,7.43-.24,9.29-.11,1.38.1,2.3.81,2.92,1.98,1.08,2.03,3.36,8.89,3.58,11.72ZM710.14,227.5c.27-.06,4.74-1.46,7.96-2.75,1.28-.51,2.54-1.09,3.8-1.65.65-.29.53-.77-.04-.81-3.41-.26-6.81-.2-10.2.3-.55.08-.99.38-1.27.96-.28,1.05-.6,2.17-.88,3.3-.12.49.1.75.64.64ZM724.64,250.75c-4.67-1.42-10.61-2.33-21.02-2.85-.98-.05-1.42.28-1.7.98-.97,2.81-1.87,5.42-2.76,8.04-.52,1.54-1.03,3.08-1.53,4.62-.22.7-.03.91.69.79,6.31-1.06,16.52-3.39,26.39-10.04.82-.56.55-1.34-.08-1.53ZM833.12,217.15c-.27-.11-.57,0-.69.27-.11.27,0,.57.27.69.27.11.57,0,.69-.27.11-.27,0-.57-.27-.69ZM444.08,236.76c-.26,0-.47.21-.47.47s.21.47.47.47.47-.21.47-.47c0-.26-.21-.47-.47-.47ZM440.4,289.34c.02.83-.81,1.65-1.73,1.68-.79.02-1.46-.56-1.46-1.68-.03-.9.52-1.5,1.4-1.53,1.05-.03,1.77.58,1.8,1.53ZM432.32,217.89c0-.25.2-.45.45-.45s.45.2.45.45-.2.45-.45.45-.45-.2-.45-.45ZM500.37,166.97c0-.8.73-1.39,1.69-1.37.56.01,1.43,1.02,1.43,1.66,0,.77-.86,1.49-1.77,1.47-.92-.01-1.35-.58-1.35-1.76ZM503.9,174.66c.65.01,1.43.98,1.41,1.76-.01.68-.89,1.52-1.56,1.5-.87-.04-1.54-.79-1.54-1.72,0-.87.76-1.55,1.69-1.53ZM505.8,167.3c.02-.43.45-.75.94-.73.58.03.83.47.82.97,0,.61-.5.73-1.02.74-.67,0-.76-.58-.74-.98ZM513.57,166.56c-.02-.73.73-1.38,1.56-1.37.65,0,1.59.93,1.6,1.58.02.75-.84,1.52-1.69,1.52-1.01,0-1.44-.51-1.47-1.73ZM444.72,231.25c.02-.91.9-1.81,1.82-1.81,1.28,0,2.2.96,2.16,2.26-.03.88-1.03,1.68-2.07,1.68-1.05-.03-1.93-.46-1.91-2.13ZM426.85,236.35c.02.67-.29,1.09-.95,1.14-.6.04-.88-.18-.97-1.28-.04-.52.24-.85,1.06-.88.61-.02.84.46.86,1.02ZM509.14,174.18c-1.38,2.53-2.83,5.03-4.43,7.43-6.96,10.47-15.84,19.44-26.5,29.87-.6.59-.96.42-1.45-.01-2.03-1.79-4.08-3.55-6.09-5.35-5.18-4.63-15.18-13.32-19.08-16.69-2.15-1.86-5.38-.76-6.11,1.42-.62,1.87-6.24,19.55-7.13,22.65-1.17,4.04-3.83,11.75-4.63,14.59-.28.99-.67.82-1.26.54-.9-.44-3.3-1.41-4.23-1.86-1-.49-1.46-.83-1.95-1.9-.91-2.03-2.75-2.65-4.75-1.81-.74.31-1.29.23-2.01-.06-3.18-1.31-16.11-7.01-18.95-8.3-3.76-1.7-7.2,2.21-5.45,5.48.78,1.46,15.96,27.84,17.99,31.3,3.09,5.27,12.02,20.92,16.04,28.09.42.76.74,1.52.9,2.21.33,1.38.8,1.97,1.8,2.34,1.53.56,1.67,1.97,1.54,3.37-.18,2.06-.29,13.17-.38,15.25-.05,1.12-.4,2.82.08,3.86.43.92,1.46,1.35,2.12.45.68-.91.5-2.02.55-3.08.05-1.15.13-11.31.08-12.47-.08-2.02-.52-5.07,1.23-6.64.72-.65,1.5-.86,2.53.2,1.51,1.55,2.49.62,3.02-.72.54-1.37,1.17-2.37,1.99-3.07.51-.43,1.01-.87,1.73-1.36.55-.37,1.2-.44,1.84-.51.8-.09,1.68-.27,2.56-.97.48-.38.94-.79,1.51-1.02,2.71-1.07,30.7-10.95,35.03-12.52,1.58-.57,2.71-.8,4.44-.65,2.32.19,3.48,0,5.03-1.96.86-1.08,1.73-.75,2.67.58.6.85,1.7,1.41,2.6-.07,1.33-2.2,2.63-3.65,4.83-4.63,1.4-.62,2.78-1.29,4.27-1.71,1.53-.43,2.37-1.3,2.63-2.75.29-1.59.38-3.24.38-4.86.01-3.16.18-6.32.28-9.48.07-2.01,1.4-39.05,1.58-43.48.09-2.12.88-17.11.8-18.99-.2-5.31-5.87-6-7.65-2.71ZM508.2,191.98c-.01,2.66-.7,20.68-.78,22.91-.15,4.28-1.22,31.55-1.33,34.21-.02.44-.2.72-.67.86-1.67.48-3.2.91-4.56,1.54-2.17,1.01-4.11,1.52-6.34,2.31-3.43,1.21-23.17,8.37-25.19,9.07-1.28.44-31.85,11.27-32.29,11.5-.9.46-1.37.35-1.87-.5-2.61-4.5-10.57-18.43-12.35-21.56-4.1-7.22-12.12-20.88-13.91-24.26-.33-.63-.14-.91.52-.64,3.4,1.38,10.04,4.41,13.41,5.84,2.16.92,4.32,1.85,6.51,2.73,4.41,1.79,8.01,5.03,8.69,8.41.11.54.4,1,.9,1s.9-.45.9-1c0-.28,0-.45,0-.73,0-.3.18-.45.69-.45.47,0,.85-.38.85-.85,0-.97-.28-3.14-.28-7.32,0-3.64,2.52-11.35,4.08-16.5,1.75-5.78,4.37-13.58,5.89-18.28.13-.39.33-.45.63-.17,3.23,2.9,18.55,16.41,21.52,18.95,1.38,1.17,2.81,2.27,3.79,3.83,1.25,1.99,2.11,4.13,2.45,6.45.13.9.75,1.24,1.37,1.2.68-.04,1.16-.49,1.26-1.43.15-1.43-.09-2.82-.08-4.22.02-3.67-.32-5.72,1.41-7.04,1.58-1.2,8.57-7.99,10.82-10.28s10.97-12.66,13.42-15.71c.27-.34.52-.38.51.14ZM525.95,177.36c0,1.79-1.4,3.25-3.11,3.15-1.68-.1-3.29-1.29-3.11-3.32-.11-1.6,1.28-3.13,3.49-3,1.42.08,2.73,1.12,2.73,3.18ZM519.24,170.87c-.54.05-.66-.37-.7-.8-.04-.52.16-.73.7-.76.56-.03.85.17.89.7.05.63-.41.81-.9.86ZM432.59,241.52c-.04,1.07-1.06,2.06-2.07,2-1.05-.06-1.98-1.13-1.97-2.29.01-.94,1.19-1.9,2.28-1.87.86.02,1.79,1.17,1.75,2.16ZM440.37,269.19c-.05,1.7-1.46,3.25-3.08,3.27-1.72.03-3.22-1.51-3.22-3.32,0-1.82,1.25-3.2,2.86-3.22,2.1-.03,3.48,1.65,3.43,3.27ZM449.2,243.23c.02,1.34-.72,2.13-1.99,2.13-1.13,0-1.98-.81-1.97-1.87,0-1.28.79-2.05,2.07-2.05,1.03,0,1.88.81,1.89,1.79ZM505.51,171.34c0,.22-.18.4-.4.4s-.4-.18-.4-.4.18-.4.4-.4.4.18.4.4ZM503.42,182.99c0,.21-.17.39-.39.39s-.39-.17-.39-.39.17-.39.39-.39.39.17.39.39ZM520.97,183.79c0,.46-.37.83-.83.83s-.83-.37-.83-.83.37-.83.83-.83.83.37.83.83ZM500.76,265.74c0,.4-.33.73-.73.73s-.73-.33-.73-.73.33-.73.73-.73.73.33.73.73ZM444.86,268.43c0,.47-.38.85-.85.85s-.85-.38-.85-.85.38-.85.85-.85.85.38.85.85ZM447.64,282.9c0,.48-.39.87-.87.87s-.87-.39-.87-.87.39-.87.87-.87.87.39.87.87ZM452.23,284.01c0,.31-.25.56-.56.56s-.56-.25-.56-.56.25-.56.56-.56.56.25.56.56Z"/>
      </g>
    </g>
  </g>
</svg>