<svg width="161" height="78" viewBox="0 0 161 78" fill="none" xmlns="http://www.w3.org/2000/svg">
<path d="M20.9131 28.0785H0V0.493347H7.9518V21.3247H20.9062V28.0716L20.9131 28.0785Z" fill="#00FF00"/>
<path d="M23.4351 0.493347V28.0785H44.1622V21.3247H31.3869V17.4822H43.0114V11.2773H31.3869V7.2472H43.9141H56.4L51.6178 28.0785H59.5696L64.3587 7.28194H72.2347L73.7851 0.493347H23.4351Z" fill="#00FF00"/>
<path d="M74.0745 12.4029L76.1279 0.500275H84.3002V0.68094L80.0142 12.4029H74.0745Z" fill="#00FF00"/>
<path d="M106.826 7.93508L99.1564 9.49847C98.5432 6.70521 96.8136 6.37864 95.7387 6.37864C94.4088 6.37864 93.5061 7.06653 93.5061 8.08794C93.5061 8.95649 93.9747 9.54016 94.7326 9.79725L99.5561 11.4301C104.448 13.0977 107.005 15.1684 107.005 19.5598C107.005 26.2372 100.996 28.6344 95.8834 28.6344C89.73 28.6344 84.8721 25.188 84.1899 20.067L92.2175 18.3994C92.755 20.8661 94.016 21.8458 95.9936 21.8458C97.5027 21.8458 98.5156 21.1579 98.5156 20.1365C98.5156 19.3374 98.0815 18.6843 97.0066 18.3577L92.0728 16.8707C87.3596 15.4532 85.0581 13.1325 85.0581 8.99818C85.0581 3.0434 89.7714 0 95.8558 0C101.575 0 105.971 2.68903 106.833 7.94898L106.826 7.93508Z" fill="#00FF00"/>
<path d="M24.2206 53.3846C24.2206 58.2485 20.7684 61.3336 15.0767 61.3336H0V33.7484H13.6435C19.3283 33.7484 22.4222 36.5417 22.4222 41.0442C22.4222 43.2608 21.485 45.1785 19.9002 46.4848C22.3808 47.68 24.2206 49.827 24.2206 53.3777V53.3846ZM7.9518 44.4212H11.8037C13.2783 44.4212 14.2843 43.4762 14.2843 42.024C14.2843 40.7871 13.2783 39.9533 11.8037 39.9533H7.9518V44.4142V44.4212ZM13.2094 55.1217C14.9389 55.1217 16.0897 54.0308 16.0897 52.4396C16.0897 50.9527 14.9389 49.9382 13.2094 49.9382H7.9518V55.1286H13.2094V55.1217Z" fill="white"/>
<path d="M46.1053 61.3336L44.6652 58.1373H34.1569L32.7168 61.3336H24.2206L37.3542 33.7484H41.4541L54.5877 61.3336H46.0915H46.1053ZM39.4489 46.4154L37.113 51.6058H41.7573L39.4558 46.4154H39.4489Z" fill="white"/>
<path d="M86.4914 61.3336H78.7188V48.486L72.6343 55.1634H70.2571L64.1726 48.486V61.3336H56.4V33.7484H61.2923L71.4422 45.1438L81.5922 33.7484H86.4845V61.3336H86.4914Z" fill="white"/>
<path d="M114.316 53.3846C114.316 58.2485 110.864 61.3336 105.172 61.3336H90.0952V33.7484H103.739C109.424 33.7484 112.517 36.5417 112.517 41.0442C112.517 43.2608 111.58 45.1785 109.995 46.4848C112.476 47.68 114.316 49.827 114.316 53.3777V53.3846ZM98.047 44.4212H101.899C103.374 44.4212 104.38 43.4762 104.38 42.024C104.38 40.7871 103.374 39.9533 101.899 39.9533H98.047V44.4142V44.4212ZM103.305 55.1217C105.034 55.1217 106.185 54.0308 106.185 52.4396C106.185 50.9527 105.034 49.9382 103.305 49.9382H98.047V55.1286H103.305V55.1217Z" fill="white"/>
<path d="M137.744 61.3336H116.831V33.7484H124.783V54.5797H137.737V61.3266L137.744 61.3336Z" fill="white"/>
<path d="M161 61.3336H140.266V33.7484H160.745V40.4953H148.218V44.5254H159.842V50.7303H148.218V54.5797H160.993V61.3266L161 61.3336Z" fill="white"/>
<path d="M160.324 73.6864C160.324 74.3831 160.14 75.065 159.772 75.732C159.419 76.3991 158.854 76.9475 158.074 77.3774C157.295 77.7925 156.259 78 154.965 78C154.348 78 153.811 77.9704 153.356 77.9111C152.915 77.8666 152.496 77.7776 152.099 77.6442C151.702 77.5108 151.283 77.333 150.842 77.1106V73.3974C151.592 73.7976 152.341 74.1089 153.091 74.3312C153.855 74.5388 154.517 74.6425 155.076 74.6425C155.502 74.6425 155.781 74.5832 155.913 74.4647C156.06 74.3461 156.134 74.2127 156.134 74.0644C156.134 73.9162 156.068 73.7902 155.936 73.6864C155.803 73.5678 155.583 73.4344 155.274 73.2862C154.965 73.1231 154.539 72.9082 153.995 72.6414C153.378 72.3301 152.834 72.004 152.363 71.6631C151.908 71.3073 151.548 70.8774 151.283 70.3734C151.033 69.8694 150.908 69.232 150.908 68.4612C150.908 67.5867 151.121 66.8603 151.548 66.2822C151.974 65.6893 152.569 65.2446 153.334 64.9481C154.113 64.6517 155.024 64.5034 156.068 64.5034C156.979 64.5034 157.795 64.6146 158.515 64.8369C159.236 65.0445 159.868 65.2668 160.412 65.504L159.155 68.7058C158.582 68.439 158.016 68.2241 157.457 68.061C156.898 67.8979 156.391 67.8164 155.936 67.8164C155.568 67.8164 155.326 67.8683 155.208 67.9721C155.09 68.0758 155.031 68.1796 155.031 68.2833C155.031 68.3871 155.098 68.4983 155.23 68.6169C155.362 68.7355 155.597 68.8911 155.936 69.0838C156.288 69.2617 156.796 69.5063 157.457 69.8176C158.104 70.114 158.633 70.4401 159.045 70.7959C159.471 71.1368 159.787 71.5371 159.993 71.9966C160.213 72.4561 160.324 73.0194 160.324 73.6864Z" fill="white"/>
<path d="M134.591 64.6813C136.429 64.6813 137.825 65.0222 138.781 65.7041C139.736 66.3712 140.214 67.3866 140.214 68.7503C140.214 69.5656 140.001 70.2993 139.575 70.9515C139.148 71.5889 138.516 72.0559 137.678 72.3523L141.361 77.8221H136.796L134.327 73.4641H133.864V77.8221H129.674V64.6813H134.591ZM134.415 70.3512C134.841 70.3512 135.209 70.2697 135.518 70.1066C135.841 69.9287 136.003 69.6026 136.003 69.1283C136.003 68.7132 135.892 68.3871 135.672 68.1499C135.451 67.9128 135.084 67.7942 134.569 67.7942H133.864V70.3512H134.415Z" fill="white"/>
<path d="M110.734 64.6813H118.716V67.9054H114.923V69.573H118.407V72.7526H114.923V74.5981H118.716V77.8221H110.734V64.6813Z" fill="white"/>
<path d="M99.2741 64.6813V77.8221H93.7175L89.6162 69.1505H89.528C89.528 69.0616 89.5353 69.1135 89.55 69.3062C89.5647 69.4989 89.5868 69.7731 89.6162 70.1289C89.6456 70.4846 89.6676 70.8774 89.6823 71.3073C89.7117 71.7224 89.7264 72.1226 89.7264 72.508V77.8221H86.022V64.6813H91.5566L95.6579 73.1973H95.702C95.702 73.2566 95.6946 73.1899 95.6799 72.9972C95.6652 72.8045 95.6505 72.5376 95.6358 72.1967C95.6211 71.8409 95.6064 71.4704 95.5917 71.085C95.577 70.6995 95.5697 70.3438 95.5697 70.0177V64.6813H99.2741Z" fill="white"/>
<path d="M75.3324 64.6813V68.0832H72.3556V77.8221H68.1882V68.0832H65.2114V64.6813H75.3324Z" fill="white"/>
<path d="M49.2034 64.6813C51.0409 64.6813 52.4374 65.0222 53.3929 65.7041C54.3484 66.3712 54.8261 67.3866 54.8261 68.7503C54.8261 69.5656 54.613 70.2993 54.1867 70.9515C53.7604 71.5889 53.1283 72.0559 52.2904 72.3523L55.9727 77.8221H51.4084L48.9388 73.4641H48.4757V77.8221H44.2862V64.6813H49.2034ZM49.027 70.3512C49.4533 70.3512 49.8208 70.2697 50.1295 70.1066C50.4529 69.9287 50.6146 69.6026 50.6146 69.1283C50.6146 68.7132 50.5043 68.3871 50.2838 68.1499C50.0633 67.9128 49.6958 67.7942 49.1813 67.7942H48.4757V70.3512H49.027Z" fill="white"/>
<path d="M20.1896 77.8221L24.4673 64.6368H29.8696L34.1473 77.8221H29.7152L29.1199 75.6431H25.217L24.6437 77.8221H20.1896ZM27.7748 70.0622C27.6866 69.7212 27.6058 69.4173 27.5323 69.1505C27.4588 68.8837 27.3926 68.6243 27.3338 68.3723C27.275 68.1055 27.2162 67.8313 27.1574 67.5496C27.1133 67.8313 27.0619 68.1055 27.0031 68.3723C26.959 68.6243 26.9002 68.8911 26.8267 69.1728C26.7679 69.4396 26.687 69.7435 26.5841 70.0844L25.9888 72.2634H28.4143L27.7748 70.0622Z" fill="white"/>
<path d="M6.2843 64.6813C8.1365 64.6813 9.47421 65.0815 10.2974 65.882C11.1353 66.6824 11.5543 67.7571 11.5543 69.106C11.5543 69.6842 11.4587 70.2474 11.2676 70.7959C11.0765 71.3444 10.7752 71.8409 10.3636 72.2856C9.96666 72.7155 9.43746 73.0639 8.77595 73.3307C8.11445 73.5827 7.30595 73.7087 6.35045 73.7087H5.51254V77.8221H1.32303V64.6813H6.2843ZM6.152 70.4624C6.4754 70.4624 6.7547 70.3512 6.9899 70.1289C7.2251 69.8917 7.3427 69.5952 7.3427 69.2395C7.3427 68.8689 7.2545 68.5576 7.0781 68.3056C6.9017 68.0536 6.6224 67.9276 6.2402 67.9276H5.51254V70.4624H6.152Z" fill="white"/>
</svg>
