<svg width="85" height="85" viewBox="0 0 85 85" fill="none" xmlns="http://www.w3.org/2000/svg">
<path d="M42.5 82C64.3152 82 82 64.3152 82 42.5C82 20.6848 64.3152 3 42.5 3C20.6848 3 3 20.6848 3 42.5C3 64.3152 20.6848 82 42.5 82Z" stroke="white" stroke-width="2"/>
<path fill-rule="evenodd" clip-rule="evenodd" d="M20.3374 49.9697C17.8309 49.9697 15.8147 49.101 14.2888 47.3635C12.7629 45.626 12 43.3291 12 40.4727C12 37.5999 12.767 35.303 14.301 33.5818C15.8351 31.8606 17.8838 31 20.4473 31C23.0026 31 25.0493 31.8586 26.5874 33.5757C28.1255 35.2928 28.8945 37.5836 28.8945 40.4482C28.8945 43.3698 28.1255 45.6871 26.5874 47.4001C25.0493 49.1132 22.966 49.9697 20.3374 49.9697ZM20.374 48.0532C22.2214 48.0532 23.6496 47.3879 24.6587 46.0574C25.6678 44.7268 26.1724 42.849 26.1724 40.4238C26.1724 38.0719 25.6658 36.2328 24.6526 34.9062C23.6394 33.5797 22.2376 32.9165 20.4473 32.9165C18.6488 32.9165 17.245 33.5818 16.2358 34.9124C15.2267 36.2429 14.7222 38.0923 14.7222 40.4604C14.7222 42.8205 15.2227 44.6759 16.2236 46.0269C17.2246 47.3778 18.6081 48.0532 20.374 48.0532ZM37.7446 49.8232C35.8485 49.8232 34.3348 49.1946 33.2036 47.9373C32.0724 46.6799 31.5068 44.9974 31.5068 42.8896C31.5068 40.7575 32.0745 39.0709 33.2097 37.8298C34.345 36.5888 35.8851 35.9683 37.8301 35.9683C39.7751 35.9683 41.3152 36.5888 42.4504 37.8298C43.5857 39.0709 44.1533 40.7493 44.1533 42.8652C44.1533 45.03 43.5837 46.7308 42.4443 47.9678C41.305 49.2048 39.7385 49.8232 37.7446 49.8232ZM37.7812 48.0166C40.3285 48.0166 41.6021 46.2995 41.6021 42.8652C41.6021 39.4717 40.3447 37.7749 37.8301 37.7749C35.3236 37.7749 34.0703 39.4798 34.0703 42.8896C34.0703 46.3076 35.3073 48.0166 37.7812 48.0166ZM47.9131 54.3398V36.2612H50.3179V38.7515C51.3026 36.896 52.7796 35.9683 54.749 35.9683C56.3441 35.9683 57.5994 36.5501 58.5149 37.7139C59.4304 38.8776 59.8882 40.4686 59.8882 42.4868C59.8882 44.6841 59.3694 46.4561 58.3318 47.803C57.2942 49.1498 55.929 49.8232 54.2363 49.8232C52.6657 49.8232 51.3595 49.221 50.3179 48.0166V54.3398H47.9131ZM50.3179 46.3564C51.5549 47.4632 52.7349 48.0166 53.8579 48.0166C56.1691 48.0166 57.3247 46.2547 57.3247 42.731C57.3247 39.6222 56.2993 38.0679 54.2485 38.0679C52.9058 38.0679 51.5955 38.7962 50.3179 40.2529V46.3564ZM67.1636 49.8232C66.0649 49.8232 64.7303 49.5669 63.1597 49.0542V46.8447C64.7303 47.626 66.0975 48.0166 67.2612 48.0166C67.953 48.0166 68.5267 47.8294 68.9824 47.4551C69.4382 47.0807 69.666 46.6128 69.666 46.0513C69.666 45.2293 69.0272 44.5498 67.7495 44.0127L66.3457 43.4146C64.2705 42.5519 63.2329 41.3109 63.2329 39.6914C63.2329 38.5358 63.6418 37.6264 64.4597 36.9631C65.2776 36.2999 66.3986 35.9683 67.8228 35.9683C68.5633 35.9683 69.4788 36.07 70.5693 36.2734L71.0698 36.3711V38.373C69.727 37.9743 68.661 37.7749 67.8716 37.7749C66.3254 37.7749 65.5522 38.3364 65.5522 39.4595C65.5522 40.1838 66.1382 40.7941 67.3101 41.2905L68.4697 41.7788C69.78 42.3322 70.7077 42.9161 71.2529 43.5305C71.7982 44.1449 72.0708 44.9119 72.0708 45.8315C72.0708 46.9953 71.611 47.9515 70.6914 48.7002C69.7718 49.4489 68.5959 49.8232 67.1636 49.8232Z" fill="white"/>
</svg>
