<svg width="111" height="50" viewBox="0 0 111 50" xmlns="http://www.w3.org/2000/svg">
    <g fill="#7a7a7a" fill-rule="evenodd" opacity=".5">
        <path d="M44.623 5.962v3.105h-1.049v-7.74h2.965c.827 0 1.47.212 1.927.638.458.425.687.985.687 1.68 0 .705-.229 1.268-.687 1.687-.458.42-1.1.63-1.927.63h-1.916zm0-.818h1.916c.525 0 .918-.141 1.177-.423.259-.282.388-.637.388-1.066 0-.429-.13-.787-.391-1.074-.26-.287-.652-.43-1.174-.43h-1.916v2.993zm5.82.994c0-.85.231-1.552.693-2.103.46-.55 1.087-.826 1.879-.826.798 0 1.429.274 1.892.824.463.549.695 1.25.695 2.105v.117c0 .858-.23 1.56-.692 2.105-.462.546-1.09.819-1.885.819-.795 0-1.424-.274-1.887-.822-.463-.547-.694-1.248-.694-2.102v-.117zm1.05.117c0 .61.128 1.113.385 1.51s.64.595 1.147.595c.5 0 .88-.198 1.14-.595.259-.397.388-.9.388-1.51v-.117c0-.603-.13-1.104-.391-1.505-.261-.4-.643-.6-1.147-.6-.5 0-.88.2-1.137.6-.257.4-.386.902-.386 1.505v.117zm7.263.718.122.696h.032l.149-.696 1.15-3.658h.84l1.156 3.658.165.776h.032l.154-.776.905-3.658h1.044l-1.672 5.752h-.846l-1.113-3.503-.24-.978-.031.005-.23.973-1.096 3.503h-.846l-1.672-5.752h1.044l.953 3.658zm9.562 2.206c-.802 0-1.44-.267-1.913-.8-.474-.534-.71-1.226-.71-2.076v-.234c0-.819.243-1.5.731-2.044s1.066-.816 1.733-.816c.777 0 1.364.234 1.762.701.397.468.596 1.092.596 1.872v.654H66.78l-.016.026c.01.553.15 1.008.42 1.364.27.356.648.534 1.134.534.355 0 .667-.05.935-.151.268-.101.5-.24.694-.418l.41.68c-.206.203-.477.371-.814.506-.337.135-.746.202-1.225.202zm-.16-5.146c-.35 0-.65.148-.899.444-.248.296-.4.667-.458 1.113l.011.027h2.656v-.138c0-.411-.11-.755-.33-1.032-.22-.276-.546-.414-.98-.414zm6.657.207-.537-.032c-.277 0-.51.066-.7.197-.19.13-.337.315-.44.553v4.11H72.09V3.314h.937l.1.84c.164-.298.365-.53.605-.697.24-.166.515-.25.828-.25a1.483 1.483 0 0 1 .4.058l-.145.974zm3.697 4.939c-.802 0-1.44-.267-1.914-.8-.474-.534-.71-1.226-.71-2.076v-.234c0-.819.244-1.5.732-2.044s1.065-.816 1.732-.816c.777 0 1.365.234 1.762.701.398.468.596 1.092.596 1.872v.654h-3.736l-.016.026c.01.553.15 1.008.42 1.364.27.356.648.534 1.134.534.355 0 .666-.05.934-.151.268-.101.5-.24.695-.418l.41.68c-.206.203-.478.371-.815.506-.337.135-.745.202-1.224.202zm-.16-5.146c-.351 0-.651.148-.9.444-.248.296-.4.667-.457 1.113l.01.027h2.657v-.138c0-.411-.11-.755-.33-1.032-.22-.276-.547-.414-.98-.414zm3.692 2.264c0-.925.198-1.67.593-2.238.396-.567.95-.85 1.664-.85.337 0 .636.062.897.186.26.124.483.304.668.542V.774h1.048v8.293h-.857l-.122-.707c-.188.27-.419.473-.692.612-.273.138-.591.207-.953.207-.703 0-1.253-.254-1.65-.763-.398-.509-.596-1.178-.596-2.007v-.112zm1.048.112c0 .581.12 1.046.357 1.396.238.349.607.523 1.107.523.312 0 .575-.07.788-.212.213-.142.387-.34.522-.596V4.835a1.613 1.613 0 0 0-.525-.566 1.387 1.387 0 0 0-.774-.21c-.504 0-.876.208-1.115.622-.24.415-.36.954-.36 1.616v.112zm13.808 0c0 .83-.2 1.498-.599 2.007-.399.509-.948.763-1.647.763-.38 0-.71-.074-.99-.22a1.84 1.84 0 0 1-.698-.652l-.127.76h-.857V.774h1.048v3.221a1.82 1.82 0 0 1 .674-.584c.268-.135.58-.202.94-.202.709 0 1.263.283 1.66.85.398.567.596 1.313.596 2.238v.112zm-1.048-.112c0-.659-.122-1.197-.365-1.613-.243-.417-.613-.625-1.11-.625-.323 0-.595.08-.817.237-.222.158-.398.37-.53.635v2.493c.135.284.312.506.53.665.218.16.494.24.828.24.493 0 .86-.176 1.102-.527.241-.351.362-.815.362-1.393v-.112zm4.484.638.187.723h.031l1.416-4.343h1.166l-2.422 6.635a2.982 2.982 0 0 1-.625 1.01c-.272.287-.638.43-1.1.43a3.388 3.388 0 0 1-.628-.085l.107-.824c-.022-.003.041 0 .189.011.147.01.24.016.28.016.223 0 .406-.1.548-.298a3.09 3.09 0 0 0 .356-.659l.25-.6-2.14-5.636h1.172l1.213 3.62zM47.84 39.11v.49c0 2.887-.007 5.768.007 8.656 0 .345-.097.41-.404.403a140.561 140.561 0 0 0-3.48 0c-.258 0-.356-.043-.356-.345.007-5.374.007-10.755 0-16.13 0-.3.098-.351.355-.344 1.114.014 2.228.014 3.342 0 .223 0 .355.065.473.259 1.351 2.09 2.709 4.167 4.066 6.25.063.094.133.187.21.302 1.412-2.163 2.819-4.296 4.211-6.444.174-.266.348-.381.662-.374a97.26 97.26 0 0 0 3.237 0c.23 0 .292.057.292.294a6311.14 6311.14 0 0 0 0 16.237c0 .252-.09.288-.3.288a194.982 194.982 0 0 0-3.55 0c-.285.007-.369-.065-.369-.367.014-2.91.007-5.82.007-8.729v-.36c-.16.051-.195.173-.257.26-1.24 1.788-2.479 3.577-3.711 5.373-.188.273-.279.266-.467 0-1.288-1.882-2.596-3.75-3.968-5.718M43.614 19.442c0-2.674.007-5.34-.007-8.014 0-.295.064-.381.369-.381 3.723.014 7.446.007 11.169 0 .276 0 .354.072.347.36a87.736 87.736 0 0 0 0 3.054c.007.31-.056.403-.383.403-2.269-.015-4.538 0-6.807-.015-.327 0-.412.086-.405.41.029.625.022 1.243 0 1.869-.007.273.071.337.334.33 2.078-.014 4.162 0 6.24-.014.326 0 .39.093.383.402a69.716 69.716 0 0 0 0 2.983c.007.28-.085.338-.34.338-2.078-.007-4.163 0-6.24-.014-.291 0-.384.065-.37.374.022.733.022 1.459 0 2.192-.007.259.079.316.32.316 2.283-.007 4.56 0 6.843-.014.34 0 .44.079.432.431a61.207 61.207 0 0 0 0 3.019c.008.302-.05.402-.382.402-3.71-.014-7.425-.014-11.134 0-.298 0-.369-.086-.369-.38v-8.05zM89.198 16.003c1.367 0 2.727.006 4.093-.007.243 0 .243.17.291.307.68 1.979 1.353 3.957 2.033 5.936.035.095.07.191.125.368.201-.593.381-1.112.555-1.637.52-1.563 1.04-3.125 1.554-4.688.055-.17.118-.286.347-.286 1.234.013 2.476.007 3.71.007.043 0 .084.006.174.02-.263.676-.513 1.33-.77 1.979-1.74 4.503-3.489 9.006-5.223 13.516-.097.246-.208.321-.472.314-1.145-.013-2.29-.013-3.434 0-.27 0-.34-.034-.229-.307.514-1.262 1-2.538 1.513-3.8a.81.81 0 0 0-.007-.649 6806.23 6806.23 0 0 1-4.17-10.705c-.034-.11-.104-.218-.09-.368M98.325 35.841c.098-.076.203-.041.3-.041 1.29 0 2.581 0 3.872-.007.209 0 .335.062.446.235.544.852 1.11 1.704 1.681 2.576.565-.851 1.123-1.682 1.66-2.52.133-.208.273-.298.53-.291 1.312.014 2.623.007 3.956.007-.007.18-.126.284-.21.394-1.178 1.71-2.357 3.421-3.55 5.125-.147.208-.16.34-.007.554 1.283 1.835 2.553 3.677 3.83 5.52.048.076.097.152.167.27h-1.876c-.803 0-1.605-.007-2.407.006-.202 0-.314-.069-.419-.228-.606-.928-1.22-1.842-1.862-2.819-.377.568-.732 1.095-1.088 1.628-.272.401-.537.803-.802 1.212-.091.138-.189.207-.363.2-1.346-.006-2.693-.006-4.067-.006.007-.167.126-.27.202-.388a926.28 926.28 0 0 1 3.725-5.381c.14-.201.147-.333.007-.533a867.568 867.568 0 0 1-3.578-5.229c-.049-.076-.154-.152-.147-.284M69.375 15.996c-.337.877-.666 1.713-.989 2.55-1.164 3.005-2.335 6.004-3.493 9.016-.09.228-.196.311-.448.311a117.48 117.48 0 0 0-3.121 0c-.232 0-.351-.055-.435-.276-1.445-3.759-2.89-7.518-4.349-11.276-.098-.263-.063-.325.225-.318 1.213.014 2.433.014 3.647 0 .245 0 .337.076.414.297.687 2.052 1.381 4.097 2.076 6.142.028.076.056.152.112.298.196-.588.372-1.106.54-1.624a555.79 555.79 0 0 0 1.585-4.816c.07-.228.168-.297.414-.297 1.255 0 2.503-.007 3.822-.007M75.508 44.115c0-1.387-.007-2.767.007-4.154 0-.246-.058-.34-.319-.326-.522.022-1.037-.007-1.559.015-.254.007-.304-.087-.297-.318.007-.925.007-1.857 0-2.782 0-.216.065-.296.283-.289.493.015.993-.014 1.486.008.305.014.42-.05.406-.383-.029-.903 0-1.806-.014-2.71-.008-.252.036-.354.326-.354 1.233.022 2.465.015 3.698 0 .283 0 .341.087.334.347-.015.918.007 1.828-.015 2.746-.007.296.095.36.37.354.595-.022 1.182 0 1.777-.008.203-.007.268.058.268.268-.007.953-.007 1.9 0 2.854 0 .202-.05.274-.261.267-.58-.015-1.16.022-1.74-.015-.356-.021-.407.109-.407.427.015 2.73 0 5.462.015 8.193 0 .34-.102.404-.42.404-1.211-.014-2.415-.014-3.626 0-.254 0-.327-.058-.32-.318.015-1.409.008-2.817.008-4.226M87.368 37.017c.398-.433.781-.745 1.247-.948.74-.318 1.501-.338 2.275-.183.206.041.295.143.288.373a135.962 135.962 0 0 0 0 3.352c0 .277-.075.277-.308.196-.85-.305-1.713-.386-2.556-.013-.617.27-.946.744-.939 1.435.007 2.018-.007 4.043.014 6.06 0 .319-.096.387-.398.38-1.13-.02-2.26-.014-3.392 0-.246 0-.349-.034-.349-.325.014-3.657.007-7.313 0-10.97 0-.257.069-.325.322-.325a150.3 150.3 0 0 0 3.495 0c.267-.007.336.088.315.332-.027.183-.014.372-.014.636M85.44 17.194c.567-.673 1.205-1.032 1.967-1.182.132-.027.229-.04.29.13.493 1.276.999 2.552 1.498 3.822.006.013-.007.04-.014.081a3.873 3.873 0 0 0-2.363-.251c-.908.183-1.386.76-1.386 1.663 0 2.024-.007 4.054.007 6.077 0 .272-.076.34-.346.34a150.283 150.283 0 0 0-3.5 0c-.221 0-.325-.028-.325-.286.007-3.7.007-7.4 0-11.1 0-.231.076-.286.298-.279 1.192.007 2.376.014 3.568 0 .25 0 .326.075.305.306-.02.183 0 .38 0 .679M93.167 41.734c0-1.87.007-3.74-.006-5.61 0-.256.052-.332.308-.332 1.114.014 2.227.014 3.341 0 .236 0 .321.048.315.318-.007 3.754-.007 7.5 0 11.254 0 .243-.066.305-.289.305a137.007 137.007 0 0 0-3.374 0c-.255.007-.301-.083-.295-.332.007-1.863 0-3.733 0-5.603M37.659 30.353c-.035 2.346-.646 4.549-1.553 6.666-1.099 2.561-2.576 4.872-4.479 6.86-1.463 1.535-3.09 2.841-5.11 3.501-.907.294-1.834.41-2.769.13-1.387-.41-2.164-1.443-2.583-2.82-.467-1.543-.432-3.13-.116-4.679 1.126-5.51 3.812-10.003 8.167-13.368 1.168-.904 2.473-1.535 3.943-1.708 1.834-.215 3.305.682 4.019 2.469.144.366.254.739.33 1.126.103.603.165 1.213.15 1.823m-17.71-4.46c-2.63-.028-5.515-.559-8.18-2.05-.938-.523-1.777-1.17-2.49-1.991-1.854-2.13-1.79-4.856.148-6.913 1.453-1.534 3.244-2.464 5.212-3.039 4.393-1.28 8.744-1.155 13.01.611 1.298.538 2.461 1.294 3.456 2.326 2.13 2.21 2.136 5.06.014 7.277-1.382 1.439-3.089 2.297-4.936 2.893-1.904.618-3.872.88-6.234.887m-2.465 18.81c-.46 1.535-1.38 2.605-2.955 2.899-.9.165-1.78.007-2.631-.302-1.684-.617-3.113-1.657-4.385-2.935-3.016-3.02-5.092-6.63-6.13-10.872-.253-1.04-.39-2.11-.39-3.466.013-1.048.185-2.332.913-3.452.832-1.277 2.02-1.787 3.463-1.65 1.876.179 3.443 1.112 4.852 2.325 3.766 3.236 6.198 7.363 7.305 12.322.378 1.7.474 3.43-.042 5.13m22.024-17.182c-.486-4.472-2.338-8.353-5.528-11.524-4.972-4.936-10.993-6.8-17.902-5.576C7.88 11.862 1.367 18.71.197 26.98c-.056.408-.028.83-.197 1.223v.352a.548.548 0 0 1 0 .422v1.757a.548.548 0 0 1 0 .422v.352c.077.387.042.788.099 1.181a19.62 19.62 0 0 0 2.197 6.638c1.246 2.292 2.866 4.275 4.894 5.92 2.627 2.138 5.606 3.523 8.93 4.17.655.127 1.317.155 1.978.232h.423a.55.55 0 0 1 .423 0h1.76a.389.389 0 0 1 .352 0h.423c.204-.14.443-.098.662-.12 4.486-.548 8.38-2.362 11.57-5.547 4.55-4.55 6.486-10.07 5.796-16.46M68.071 45.31c-.354.269-.765.385-1.263.379a1.708 1.708 0 0 1-.933-.238c-.61-.36-.622-1.128-.019-1.5.629-.39 1.749-.293 2.265.195.367.341.349.866-.05 1.165m4.264-4.037c0-.418-.007-.835-.048-1.253-.19-1.837-1.069-3.111-2.693-3.774-1.204-.497-2.463-.511-3.721-.396a8.278 8.278 0 0 0-2.795.742c-.217.1-.304.223-.298.482.014.886.007 1.78.007 2.665 0 .497-.007.49.413.288 1.306-.627 2.66-.871 4.067-.46.845.251 1.224.87 1.143 1.785-1.204-.634-2.463-.785-3.769-.49-1.766.404-3.16 1.743-3.194 3.666-.02 1.232.325 2.283 1.232 3.082 1.468 1.29 3.931 1.405 5.738.26.027.547.027.547.541.547 1.029 0 2.05-.007 3.079.007.264.007.311-.079.311-.346-.013-2.268-.007-4.537-.013-6.805M76.121 20.945h-3.773c.276-1.432 1.355-2.226 2.56-1.912.733.19 1.308.894 1.402 1.713.016.174-.047.199-.189.199m4.04-.216c-.27-1.625-.953-3.006-2.413-3.912-.887-.547-1.86-.77-2.892-.813-2.282-.1-4.127.72-5.37 2.64-1.126 1.732-1.33 3.645-.88 5.623.466 2.02 1.708 3.395 3.663 4.12 1.344.504 2.74.555 4.149.396.945-.107 1.853-.33 2.681-.827.117-.072.276-.108.276-.294v-3.107c-.043-.007-.058-.022-.065-.015-.05.022-.11.05-.16.08-1.22.704-2.543.956-3.946.82-1.118-.109-2.012-.562-2.47-1.655-.124-.302-.073-.374.262-.374 2.31.015 4.62 0 6.932.015.261 0 .356-.058.348-.331-.014-.791.015-1.582-.116-2.366"/>
        <path d="M10.902 18.58c.529-.3 1.043-.56 1.517-.873.744-.497 1.51-.722 2.435-.606 1.12.143 2.26.13 3.395.198.223.013.292-.014.244-.266-.14-.736-.237-1.479-.362-2.214-.035-.212-.007-.348.215-.464.752-.402 1.49-.83 2.227-1.253.139-.082.25-.11.41-.02 2.533 1.437 5.065 2.874 7.605 4.305.042.02.07.048.153.102-.257.15-.494.286-.724.416-.619.354-1.245.695-1.857 1.056-.181.102-.306.116-.494.007-1.1-.634-2.199-1.254-3.305-1.874-.118-.068-.223-.163-.39-.17.049.708.077 1.403.146 2.098.028.307-.09.32-.347.314-1.28-.014-2.568-.007-3.792-.007 1.182.674 2.449 1.39 3.75 2.125-.717.41-1.426.757-2.067 1.193-.556.374-.98.36-1.565.013-2.261-1.335-4.557-2.602-6.846-3.897-.112-.04-.21-.102-.348-.184"/>
    </g>
</svg>
