<svg width="96" height="96" viewBox="0 0 96 96" fill="none" xmlns="http://www.w3.org/2000/svg">
<g filter="url(#filter0_d_42_4239)">
<circle cx="48" cy="44" r="40" fill="white"/>
</g>
<path d="M37.45 58.64C34.7633 58.64 32.6833 57.8167 31.21 56.17C29.7367 54.5233 29 52.27 29 49.41C29 45.25 30.2133 41.4367 32.64 37.97C35.0667 34.5033 38.5333 31.5133 43.04 29L46.03 34.46C41.2633 37.4067 38.49 40.5267 37.71 43.82L38.75 43.69C40.6567 43.69 42.26 44.3833 43.56 45.77C44.86 47.07 45.51 48.6733 45.51 50.58C45.51 53.0067 44.7733 54.9567 43.3 56.43C41.8267 57.9033 39.8767 58.64 37.45 58.64ZM58.9 58.64C56.2133 58.64 54.1333 57.8167 52.66 56.17C51.1867 54.5233 50.45 52.27 50.45 49.41C50.45 45.25 51.6633 41.4367 54.09 37.97C56.5167 34.5033 59.9833 31.5133 64.49 29L67.48 34.46C62.7133 37.4933 59.94 40.6133 59.16 43.82L60.2 43.69C62.1067 43.69 63.71 44.3833 65.01 45.77C66.31 47.07 66.96 48.6733 66.96 50.58C66.96 53.0067 66.2233 54.9567 64.75 56.43C63.2767 57.9033 61.3267 58.64 58.9 58.64Z" fill="#00FF00"/>
<defs>
<filter id="filter0_d_42_4239" x="0" y="0" width="96" height="96" filterUnits="userSpaceOnUse" color-interpolation-filters="sRGB">
<feFlood flood-opacity="0" result="BackgroundImageFix"/>
<feColorMatrix in="SourceAlpha" type="matrix" values="0 0 0 0 0 0 0 0 0 0 0 0 0 0 0 0 0 0 127 0" result="hardAlpha"/>
<feOffset dy="4"/>
<feGaussianBlur stdDeviation="4"/>
<feComposite in2="hardAlpha" operator="out"/>
<feColorMatrix type="matrix" values="0 0 0 0 0 0 0 0 0 0 0 0 0 0 0 0 0 0 0.25 0"/>
<feBlend mode="normal" in2="BackgroundImageFix" result="effect1_dropShadow_42_4239"/>
<feBlend mode="normal" in="SourceGraphic" in2="effect1_dropShadow_42_4239" result="shape"/>
</filter>
</defs>
</svg>
