<svg width="90" height="90" viewBox="0 0 90 90" fill="none" xmlns="http://www.w3.org/2000/svg">
<path d="M81.3067 81H66.4562C65.9668 81 65.5718 80.6094 65.5718 80.1255C65.5718 79.6416 65.9668 79.251 66.4562 79.251H80.4224V71.0542H71.6706C71.1813 71.0542 70.7863 70.6635 70.7863 70.1797C70.7863 69.6958 71.1813 69.3052 71.6706 69.3052H81.3067C81.796 69.3052 82.191 69.6958 82.191 70.1797V80.1255C82.191 80.6094 81.796 81 81.3067 81Z" fill="black"/>
<path d="M34.0461 81H9.4798C8.99048 81 8.59549 80.6094 8.59549 80.1255V70.1797C8.59549 69.6958 8.99048 69.3052 9.4798 69.3052H28.8286C29.3179 69.3052 29.7129 69.6958 29.7129 70.1797C29.7129 70.6635 29.3179 71.0542 28.8286 71.0542H10.3641V79.251H34.0461C34.5355 79.251 34.9305 79.6416 34.9305 80.1255C34.9305 80.6094 34.5355 81 34.0461 81Z" fill="black"/>
<path d="M28.8315 71.0512H13.9928C13.5035 71.0512 13.1085 70.6606 13.1085 70.1767V60.2221C13.1085 59.7383 13.5035 59.3477 13.9928 59.3477H28.9937C29.483 59.3477 29.878 59.7383 29.878 60.2221C29.878 60.706 29.483 61.0966 28.9937 61.0966H14.8771V69.3023H28.8315C29.3208 69.3023 29.7158 69.6929 29.7158 70.1767C29.7158 70.6606 29.3208 71.0512 28.8315 71.0512Z" fill="black"/>
<path d="M76.4488 71.0512H71.6706C71.1813 71.0512 70.7863 70.6606 70.7863 70.1767C70.7863 69.6929 71.1813 69.3023 71.6706 69.3023H75.5645V61.0966H71.5055C71.0162 61.0966 70.6212 60.706 70.6212 60.2221C70.6212 59.7383 71.0162 59.3477 71.5055 59.3477H76.4488C76.9382 59.3477 77.3332 59.7383 77.3332 60.2221V70.1767C77.3332 70.6606 76.9382 71.0512 76.4488 71.0512Z" fill="black"/>
<path d="M81.3067 61.0966H71.5055C71.0162 61.0966 70.6212 60.706 70.6212 60.2221C70.6212 59.7382 71.0162 59.3476 71.5055 59.3476H80.4224V51.142H65.7959C65.3066 51.142 64.9116 50.7514 64.9116 50.2676C64.9116 49.7837 65.3066 49.3931 65.7959 49.3931H81.3067C81.796 49.3931 82.191 49.7837 82.191 50.2676V60.2221C82.191 60.706 81.796 61.0966 81.3067 61.0966Z" fill="black"/>
<path d="M79.0547 51.1421H65.7959C65.3066 51.1421 64.9116 50.7515 64.9116 50.2676C64.9116 49.7837 65.3066 49.3931 65.7959 49.3931H78.1704V41.1962H50.4442V43.878C50.4442 44.3619 50.0492 44.7525 49.5599 44.7525C49.0706 44.7525 48.6756 44.3619 48.6756 43.878V40.3218C48.6756 39.8379 49.0706 39.4473 49.5599 39.4473H79.0547C79.5441 39.4473 79.9391 39.8379 79.9391 40.3218V50.2676C79.9391 50.7515 79.5441 51.1421 79.0547 51.1421Z" fill="black"/>
<path d="M50.2556 81C41.6364 81 34.6239 74.0653 34.6239 65.542C34.6239 57.0186 41.6364 50.084 50.2556 50.084C58.8747 50.084 65.8874 57.0186 65.8874 65.542C65.8874 74.0653 58.8747 81 50.2556 81ZM50.2556 51.833C42.6121 51.833 36.3925 57.9835 36.3925 65.542C36.3925 73.1005 42.6121 79.2511 50.2556 79.2511C57.899 79.2511 64.1187 73.1005 64.1187 65.542C64.1187 57.9835 57.899 51.833 50.2556 51.833Z" fill="black"/>
<path d="M50.2556 73.0509C48.6461 73.0509 47.1634 72.1852 46.3881 70.7889C46.1523 70.3662 46.3086 69.8328 46.736 69.6025C47.1634 69.3722 47.6999 69.5238 47.9357 69.9465C48.4014 70.7831 49.2888 71.3019 50.2527 71.3019C51.7089 71.3019 52.8967 70.1301 52.8967 68.6872C52.8967 67.2443 51.7118 66.0725 50.2527 66.0725C47.8208 66.0725 45.8399 64.1166 45.8399 61.7088C45.8399 59.3011 47.8179 57.3451 50.2527 57.3451C51.8621 57.3451 53.3447 58.2108 54.12 59.6071C54.3558 60.0298 54.1997 60.5632 53.7722 60.7935C53.3478 61.0267 52.8082 60.8722 52.5724 60.4495C52.1067 59.6129 51.2195 59.0941 50.2556 59.0941C48.7965 59.0941 47.6116 60.2659 47.6116 61.7088C47.6116 63.1517 48.7965 64.3235 50.2556 64.3235C52.6874 64.3235 54.6684 66.2795 54.6684 68.6872C54.6684 71.095 52.6904 73.0509 50.2556 73.0509Z" fill="black"/>
<path d="M10.9213 33.9263C10.7444 33.9263 10.5646 33.9059 10.3877 33.8651C9.78641 33.7252 9.27347 33.3637 8.94627 32.842C8.61908 32.3202 8.51599 31.7051 8.66042 31.1105C8.95225 29.8803 10.199 29.1166 11.4459 29.4023C12.6899 29.6909 13.4651 30.9268 13.1763 32.1569C13.0348 32.7545 12.6693 33.2588 12.1417 33.5824C11.7703 33.8097 11.3516 33.9292 10.9242 33.9292L10.9213 33.9263ZM10.9154 31.0901C10.6648 31.0901 10.4378 31.2591 10.3818 31.5098C10.3465 31.6526 10.373 31.7955 10.4496 31.9208C10.5263 32.0432 10.6472 32.1307 10.7916 32.1628C10.9331 32.1948 11.0805 32.1715 11.2073 32.0957C11.3311 32.0199 11.4194 31.9004 11.4518 31.7576C11.5196 31.4661 11.337 31.1746 11.0422 31.1047C11.0009 31.0959 10.9595 31.0901 10.9183 31.0901H10.9154Z" fill="black"/>
<path d="M55.2489 29.3061C55.0721 29.3061 54.8922 29.2857 54.7154 29.2449C54.114 29.105 53.6012 28.7435 53.274 28.2217C52.9468 27.7 52.8466 27.0878 52.988 26.4902C53.1295 25.8956 53.4951 25.3884 54.0228 25.0648C54.5504 24.7412 55.1724 24.6421 55.7737 24.7791C57.0176 25.0677 57.7928 26.3037 57.5039 27.5338C57.3624 28.1314 56.997 28.6356 56.4693 28.9592C56.0979 29.1866 55.6794 29.3061 55.2519 29.3061H55.2489ZM55.243 26.4698C55.1428 26.4698 55.0426 26.499 54.9541 26.5515C54.8303 26.6273 54.7419 26.7467 54.7095 26.8896C54.6741 27.0324 54.7006 27.1782 54.7773 27.3006C54.8539 27.423 54.9748 27.5105 55.1192 27.5425C55.2666 27.5775 55.4111 27.5513 55.5349 27.4755C55.6587 27.3997 55.7472 27.2802 55.7796 27.1373C55.8474 26.8458 55.6646 26.5514 55.3698 26.4844C55.3286 26.4756 55.2843 26.4698 55.243 26.4698Z" fill="black"/>
<path d="M39.3931 19.8442C39.2192 19.8442 39.0424 19.8238 38.8655 19.7829C37.6216 19.4944 36.8464 18.2584 37.1353 17.0283C37.2768 16.4308 37.6452 15.9265 38.1699 15.6029C38.6975 15.2793 39.3195 15.1773 39.9208 15.3202C41.1647 15.6087 41.9399 16.8447 41.6481 18.0748C41.3976 19.13 40.4426 19.8442 39.3903 19.8442H39.3931ZM39.3931 17.0079C39.2929 17.0079 39.1927 17.0371 39.1043 17.0895C38.9805 17.1653 38.892 17.2848 38.8596 17.4277C38.7918 17.7192 38.9746 18.0107 39.2694 18.0806C39.5641 18.1447 39.8619 17.9669 39.9297 17.6754C39.9975 17.3839 39.8147 17.0895 39.5199 17.0225C39.4787 17.0137 39.4344 17.0079 39.3931 17.0079Z" fill="black"/>
<path d="M72.2306 13.5857C72.0538 13.5857 71.8741 13.5653 71.6972 13.5245C71.0959 13.3846 70.583 13.0231 70.2558 12.5014C69.9286 11.9796 69.8284 11.3675 69.9669 10.7699C70.2587 9.53978 71.5085 8.77606 72.7524 9.05882C73.3567 9.19873 73.8667 9.56311 74.1939 10.082C74.5211 10.6037 74.6243 11.2188 74.4799 11.8134C74.3384 12.4081 73.9728 12.9153 73.4451 13.2389C73.0737 13.4662 72.6552 13.5857 72.2278 13.5857H72.2306ZM72.2249 10.7495C71.9743 10.7495 71.7502 10.9186 71.6883 11.1692C71.6559 11.3092 71.6795 11.4549 71.7561 11.5802C71.8327 11.7027 71.9536 11.7901 72.0981 11.8222C72.2425 11.8543 72.39 11.8309 72.5138 11.7552C72.6376 11.6794 72.7259 11.5598 72.7583 11.417C72.7907 11.2742 72.7671 11.1313 72.6905 11.006C72.6139 10.8836 72.4931 10.7961 72.3487 10.7641C72.3074 10.7553 72.2662 10.7495 72.2249 10.7495Z" fill="black"/>
<path d="M23.6997 42.5954C23.5228 42.5954 23.343 42.575 23.1661 42.5342C22.5618 42.3943 22.0518 42.0299 21.7246 41.511C21.3974 40.9893 21.2973 40.3771 21.4388 39.7795C21.5803 39.1849 21.9457 38.6777 22.4734 38.3542C23.001 38.0306 23.623 37.9285 24.2243 38.0714C24.8256 38.2113 25.3386 38.5728 25.6658 39.0945C25.993 39.6163 26.0931 40.2285 25.9516 40.826C25.8101 41.4236 25.4447 41.9308 24.917 42.2515C24.5456 42.4788 24.1241 42.5983 23.6997 42.5983V42.5954ZM23.6938 39.7591C23.5935 39.7591 23.4933 39.7883 23.4049 39.8408C23.2811 39.9166 23.1926 40.0361 23.1602 40.1789C23.1248 40.3218 23.1514 40.4675 23.228 40.5899C23.3046 40.7123 23.4285 40.7998 23.57 40.8319C23.7144 40.8639 23.8588 40.8406 23.9855 40.7648C24.1093 40.689 24.1978 40.5695 24.2302 40.4267C24.2626 40.2868 24.239 40.141 24.1624 40.0157C24.0858 39.8932 23.9649 39.8058 23.8204 39.7737C23.7792 39.765 23.735 39.7591 23.6938 39.7591Z" fill="black"/>
<path d="M24.071 41.2633C23.8971 41.2633 23.7232 41.2108 23.5788 41.1146L10.4232 32.361C10.0164 32.0928 9.91023 31.5477 10.1844 31.1483C10.4556 30.7461 11.0068 30.6411 11.4107 30.9122L23.8263 39.1732L38.5738 17.0399C38.8332 16.6493 39.3579 16.5298 39.7647 16.7688L55.2579 25.8606L71.6206 10.6591C71.9772 10.3297 72.5374 10.3443 72.8705 10.697C73.2036 11.0497 73.1887 11.6035 72.832 11.9329L55.9859 27.5863C55.697 27.8544 55.2667 27.8982 54.9277 27.6999L39.5878 18.6985L24.8138 40.8726C24.6841 41.0679 24.4808 41.202 24.2479 41.2487C24.1889 41.2603 24.133 41.2662 24.074 41.2662L24.071 41.2633Z" fill="black"/>
<path fill-rule="evenodd" clip-rule="evenodd" d="M69.7869 51.1421C69.3853 50.5402 68.9583 49.9567 68.5074 49.3931L65.772 49.3931C65.2827 49.3931 64.8877 49.7837 64.8877 50.2676C64.8877 50.7515 65.2827 51.1421 65.772 51.1421L69.7869 51.1421ZM56.6389 41.1962H50.4203V43.878C50.4203 44.3619 50.0253 44.7525 49.536 44.7525C49.0467 44.7525 48.6517 44.3619 48.6517 43.878V40.3218C48.6517 40.2086 48.6733 40.1005 48.7126 40.0014C48.8004 40.0005 48.8882 40 48.9761 40C51.6491 40 54.2241 40.4195 56.6389 41.1962ZM50.2317 81C41.6125 81 34.6 74.0653 34.6 65.542C34.6 57.0187 41.6125 50.084 50.2317 50.084C58.8508 50.084 65.8635 57.0187 65.8635 65.542C65.8635 74.0653 58.8508 81 50.2317 81ZM50.2317 51.833C42.5882 51.833 36.3686 57.9835 36.3686 65.542C36.3686 73.1005 42.5882 79.2511 50.2317 79.2511C57.8751 79.2511 64.0948 73.1005 64.0948 65.542C64.0948 57.9835 57.8751 51.833 50.2317 51.833ZM46.3642 70.7889C47.1395 72.1852 48.6222 73.0509 50.2317 73.0509C52.6665 73.0509 54.6445 71.095 54.6445 68.6872C54.6445 66.2795 52.6635 64.3235 50.2317 64.3235C48.7726 64.3235 47.5877 63.1517 47.5877 61.7088C47.5877 60.2659 48.7726 59.0941 50.2317 59.0941C51.1956 59.0941 52.0828 59.613 52.5485 60.4495C52.7844 60.8722 53.3239 61.0267 53.7483 60.7935C54.1758 60.5632 54.3319 60.0298 54.0961 59.6071C53.3208 58.2109 51.8382 57.3451 50.2288 57.3451C47.794 57.3451 45.816 59.3011 45.816 61.7088C45.816 64.1166 47.7969 66.0725 50.2288 66.0725C51.6879 66.0725 52.8728 67.2443 52.8728 68.6872C52.8728 70.1301 51.685 71.3019 50.2288 71.3019C49.2649 71.3019 48.3775 70.7831 47.9118 69.9465C47.676 69.5238 47.1395 69.3722 46.7121 69.6025C46.2847 69.8328 46.1284 70.3662 46.3642 70.7889Z" fill="#00FF00"/>
</svg>
