<svg width="90" height="90" viewBox="0 0 90 90" fill="none" xmlns="http://www.w3.org/2000/svg">
<path d="M44.505 54.721C39.6302 54.721 35.6608 50.7985 35.6608 45.9752C35.6608 42.3283 37.9822 39.0309 41.4409 37.767C41.8329 37.6169 42.2938 37.7807 42.4843 38.1628C42.6886 38.5668 42.5312 39.0554 42.1227 39.2574L42.1089 39.2656C42.0813 39.2793 42.0536 39.2902 42.026 39.3011C39.2105 40.3247 37.3197 43.008 37.3197 45.9752C37.3197 49.895 40.5438 53.0832 44.5077 53.0832C47.5109 53.0832 50.2244 51.2161 51.2568 48.4373C51.4141 48.0115 51.8888 47.7959 52.3194 47.9514C52.75 48.107 52.9681 48.5793 52.8108 49.0024C51.5383 52.4226 48.201 54.721 44.5077 54.721H44.505Z" fill="black"/>
<path d="M44.505 68.1024C32.1662 68.1024 22.1296 58.1773 22.1296 45.9756C22.1296 33.774 32.169 23.8407 44.505 23.8407C47.8422 23.8407 51.0552 24.5531 54.0612 25.9562C54.1081 25.9726 54.202 26.019 54.2958 26.0654C54.7044 26.2674 54.8699 26.7587 54.6657 27.1654C54.4614 27.5694 53.9646 27.7332 53.5533 27.5312C53.5009 27.5067 53.4484 27.4794 53.3987 27.4575C50.5721 26.1391 47.5938 25.4785 44.505 25.4785C33.0799 25.4785 23.7858 34.6721 23.7858 45.9756C23.7858 57.2792 33.0799 66.4646 44.505 66.4646C55.93 66.4646 65.2324 57.2738 65.2324 45.9756C65.2324 42.9129 64.5671 39.9704 63.2532 37.227C63.2146 37.1342 63.1896 37.0878 63.1648 37.0387L64.6416 36.2962L63.8991 36.6593L64.6471 36.3099C64.6913 36.3972 64.7327 36.4846 64.7686 36.5719C66.1681 39.4899 66.8886 42.6673 66.8886 45.9756C66.8886 58.1773 56.8465 68.1024 44.505 68.1024Z" fill="black"/>
<path d="M44.5049 81.4857C24.705 81.4857 8.59552 65.5554 8.59552 45.9754C8.59552 26.3954 24.705 10.4596 44.5049 10.4596C48.4384 10.4596 52.3001 11.082 55.9879 12.3103C56.4213 12.455 56.6532 12.919 56.5096 13.3476C56.3633 13.7762 55.8941 14.0082 55.4607 13.8608C51.9468 12.6897 48.2617 12.0974 44.5076 12.0974C25.6214 12.0974 10.2546 27.2962 10.2546 45.9754C10.2546 64.6546 25.6214 79.8479 44.5076 79.8479C63.3939 79.8479 78.7663 64.6518 78.7663 45.9754C78.7663 42.263 78.1673 38.6189 76.9831 35.1441C76.8368 34.7155 77.0714 34.2515 77.5048 34.1068C77.9382 33.9621 78.4074 34.1941 78.5537 34.6227C79.7959 38.2668 80.4253 42.0883 80.4253 45.9781C80.4253 65.5581 64.3131 81.4885 44.5103 81.4885L44.5049 81.4857Z" fill="black"/>
<path d="M44.5077 46.7946C44.2951 46.7946 44.0826 46.7154 43.9225 46.5544C43.5995 46.235 43.5995 45.7164 43.9225 45.397L71.3494 18.2749C71.6723 17.9556 72.1967 17.9556 72.5197 18.2749C72.8426 18.5943 72.8426 19.1129 72.5197 19.4323L45.0929 46.5544C44.93 46.7154 44.7202 46.7946 44.5077 46.7946Z" fill="black"/>
<path d="M62.0303 29.4665C61.9613 29.4665 61.8923 29.4583 61.8233 29.4392C61.539 29.3655 61.3154 29.1498 61.2354 28.8714L58.6212 19.8389C58.5384 19.5523 58.6213 19.2438 58.8311 19.0336L68.7352 9.23955C68.9422 9.03482 69.2459 8.95293 69.5274 9.02664C69.8118 9.10034 70.0353 9.31599 70.1154 9.59441L72.7295 18.6269C72.8123 18.9135 72.7294 19.222 72.5196 19.4322L62.6155 29.2262C62.4582 29.3818 62.2456 29.4665 62.0303 29.4665ZM60.3465 19.8525L62.4388 27.0834L71.0043 18.6133L68.9119 11.3823L60.3465 19.8525Z" fill="black"/>
<path d="M71.1642 32.0516C71.0869 32.0516 71.0125 32.0407 70.9352 32.0189L61.8011 29.4339C61.5196 29.3547 61.3015 29.1336 61.227 28.8525C61.1524 28.5713 61.2353 28.2738 61.4423 28.069L71.3464 18.275C71.559 18.0648 71.871 17.9856 72.1608 18.0675L81.2947 20.6525C81.5763 20.7317 81.7944 20.9528 81.8689 21.2339C81.9434 21.5151 81.8606 21.8126 81.6535 22.0173L71.7494 31.8114C71.5921 31.967 71.3795 32.0516 71.1642 32.0516ZM63.6092 28.2437L70.9213 30.3128L79.4868 21.8426L72.1745 19.7736L63.6092 28.2437Z" fill="black"/>
<path d="M44.5094 54.7214C39.6347 54.7214 35.6653 50.7989 35.6653 45.9755C35.6653 42.3287 37.9867 39.0312 41.4454 37.7674C41.8374 37.6173 42.2983 37.781 42.4888 38.1632C42.693 38.5672 42.5357 39.0558 42.1272 39.2578L42.1134 39.266C42.0858 39.2796 42.0581 39.2906 42.0305 39.3015C39.215 40.3251 37.3242 43.0084 37.3242 45.9755C37.3242 49.8953 40.5483 53.0836 44.5121 53.0836C47.5154 53.0836 50.2289 51.2165 51.2612 48.4377C51.4186 48.0119 51.8932 47.7962 52.3239 47.9518C52.7545 48.1074 52.9726 48.5796 52.8153 49.0027C51.5428 52.423 48.2055 54.7214 44.5121 54.7214H44.5094Z" fill="black"/>
<path d="M44.5094 68.1028C32.1707 68.1028 22.1341 58.1777 22.1341 45.976C22.1341 33.7744 32.1735 23.8411 44.5094 23.8411C47.8467 23.8411 51.0596 24.5535 54.0657 25.9566C54.1126 25.9729 54.2065 26.0194 54.3003 26.0658C54.7088 26.2678 54.8744 26.7591 54.6702 27.1658C54.4659 27.5698 53.9691 27.7336 53.5578 27.5316C53.5054 27.507 53.4529 27.4797 53.4032 27.4579C50.5766 26.1395 47.5983 25.4789 44.5094 25.4789C33.0844 25.4789 23.7903 34.6724 23.7903 45.976C23.7903 57.2796 33.0844 66.465 44.5094 66.465C55.9345 66.465 65.2368 57.2741 65.2368 45.976C65.2368 42.9133 64.5716 39.9707 63.2577 37.2274C63.219 37.1346 63.1941 37.0882 63.1693 37.0391L64.6461 36.2966L63.9036 36.6596L64.6516 36.3102C64.6958 36.3976 64.7372 36.4849 64.7731 36.5723C66.1725 39.4903 66.893 42.6676 66.893 45.976C66.893 58.1777 56.851 68.1028 44.5094 68.1028Z" fill="black"/>
<path d="M44.5094 81.4861C24.7095 81.4861 8.60001 65.5557 8.60001 45.9758C8.60001 26.3958 24.7095 10.46 44.5094 10.46C48.4429 10.46 52.3045 11.0823 55.9924 12.3107C56.4257 12.4554 56.6576 12.9194 56.5141 13.348C56.3678 13.7765 55.8986 14.0085 55.4652 13.8611C51.9513 12.6901 48.2662 12.0978 44.5121 12.0978C25.6258 12.0978 10.259 27.2966 10.259 45.9758C10.259 64.6549 25.6258 79.8483 44.5121 79.8483C63.3984 79.8483 78.7707 64.6522 78.7707 45.9758C78.7707 42.2634 78.1718 38.6193 76.9876 35.1444C76.8413 34.7159 77.0759 34.2518 77.5093 34.1071C77.9427 33.9625 78.4119 34.1945 78.5582 34.623C79.8003 38.2672 80.4298 42.0887 80.4298 45.9785C80.4298 65.5585 64.3175 81.4888 44.5148 81.4888L44.5094 81.4861Z" fill="black"/>
<path fill-rule="evenodd" clip-rule="evenodd" d="M45.1187 79.8431C44.7019 80.4071 44.2619 80.953 43.8002 81.4793C24.378 81.1054 8.68371 65.4054 8.60028 46.1303C9.14022 45.6606 9.7005 45.2137 10.2796 44.7912C10.2659 45.1844 10.259 45.5793 10.259 45.9758C10.259 64.655 25.6258 79.8483 44.5121 79.8483C44.7147 79.8483 44.9169 79.8466 45.1187 79.8431ZM49.8806 67.4589C48.1593 67.8796 46.3602 68.1028 44.5094 68.1028C32.1706 68.1028 22.134 58.1777 22.134 45.976C22.134 43.9366 22.4145 41.9606 22.9392 40.0838C23.5166 40.0366 24.0996 40.0092 24.6874 40.002C24.1041 41.8927 23.7902 43.8988 23.7902 45.976C23.7902 57.2796 33.0843 66.465 44.5094 66.465C46.4054 66.465 48.243 66.2119 49.9893 65.738C49.9725 66.3168 49.9361 66.8906 49.8806 67.4589ZM47.5471 54.1874C46.5909 54.5343 45.566 54.7215 44.5121 54.7215H44.5094C39.6346 54.7215 35.6652 50.799 35.6652 45.9756C35.6652 44.8322 35.8934 43.7232 36.3133 42.7004C36.8104 42.953 37.2979 43.2218 37.7751 43.5061C37.4822 44.2834 37.3241 45.1176 37.3241 45.9756C37.3241 49.8954 40.5482 53.0837 44.5121 53.0837C45.2962 53.0837 46.0606 52.9564 46.7805 52.7188C47.0517 53.1987 47.3075 53.6885 47.5471 54.1874Z" fill="#00FF00"/>
</svg>
