<svg width="90" height="90" viewBox="0 0 90 90" fill="none" xmlns="http://www.w3.org/2000/svg">
<path d="M23.3333 59.4128H28.3333C30.1743 59.4128 31.6667 57.9204 31.6667 56.0794V52.7461" stroke="black" stroke-width="2"/>
<path d="M21.6667 52.7461V53.9628C21.6652 55.3637 21.9194 56.7531 22.4167 58.0628C22.4167 58.0628 25.75 65.2461 26.6667 67.7461C28.1667 71.7128 25.1667 72.7461 23.3333 72.7461H21.6667C18.3333 72.7461 17.3 69.4128 16.6667 67.7461C16.0333 66.0794 12.4167 58.0628 12.4167 58.0628C11.9194 56.7531 11.6652 55.3637 11.6667 53.9628V52.7461" stroke="black" stroke-width="2"/>
<path d="M60 36.0795C63.6819 36.0795 66.6667 39.0642 66.6667 42.7461C66.6667 46.428 63.6819 49.4128 60 49.4128" stroke="black" stroke-width="2"/>
<path fill-rule="evenodd" clip-rule="evenodd" d="M57.2167 18.7628C50.7333 24.7961 42.3333 31.0795 36.6667 31.0795H16.6667C11.1438 31.0795 6.66667 35.5566 6.66667 41.0795V42.7461C6.66667 48.269 11.1438 52.7461 16.6667 52.7461H36.6667C42.3333 52.7461 50.7333 59.0295 57.2167 65.0628C57.7051 65.5036 58.4071 65.6158 59.0086 65.3493C59.61 65.0828 59.9985 64.4874 60 63.8295V19.9961C59.9985 19.3382 59.61 18.7428 59.0086 18.4763C58.4071 18.2098 57.7051 18.322 57.2167 18.7628Z" stroke="black" stroke-width="2"/>
<path d="M36.6667 31.0795V52.7461" stroke="black" stroke-width="2"/>
<path d="M74.8167 61.0795C80.2197 56.5225 83.3375 49.8143 83.3375 42.7462C83.3375 35.678 80.2197 28.9698 74.8167 24.4128" stroke="black" stroke-width="2"/>
<path d="M68.3333 57.7461C72.5752 53.9131 74.9959 48.4632 74.9959 42.7461C74.9959 37.0289 72.5752 31.5791 68.3333 27.7461" stroke="black" stroke-width="2"/>
<path fill-rule="evenodd" clip-rule="evenodd" d="M40.3705 29.3124C42.1282 28.6688 44.066 27.6459 46.0949 26.3423C49.6463 24.0606 53.3192 21.0238 56.5355 18.0308L56.541 18.0256L56.5467 18.0205C57.3281 17.3152 58.4513 17.1356 59.4137 17.5621C60.3761 17.9885 60.9975 18.9412 61 19.9938L61 19.9962L61 35.1441C64.7617 35.6341 67.6667 38.8509 67.6667 42.7462C67.6667 46.0074 65.6304 48.793 62.76 49.901C61.4763 49.787 60.2205 49.576 59 49.2754V19.9985L59 19.9973C58.9989 19.7347 58.8437 19.497 58.6035 19.3906C58.3647 19.2848 58.0863 19.3282 57.8911 19.5013C54.6256 22.5395 50.8595 25.6584 47.176 28.025C45.0324 29.4022 42.8605 30.5622 40.7963 31.2839C40.6288 30.6365 40.4864 29.979 40.3705 29.3124ZM73.0593 48.6725C73.6737 46.7775 73.9959 44.7796 73.9959 42.7462C73.9959 37.3118 71.695 32.1315 67.6629 28.4881L69.0038 27.0042C73.4555 31.0268 75.9959 36.7462 75.9959 42.7462C75.9959 44.4443 75.7924 46.1199 75.3997 47.741C74.6393 48.0893 73.8584 48.4006 73.0593 48.6725ZM82.336 43.013C82.337 42.9241 82.3375 42.8351 82.3375 42.7462C82.3375 35.9727 79.3497 29.5442 74.172 25.1772L75.4614 23.6484C80.6238 28.0024 83.7835 34.2418 84.2712 40.9265C83.6658 41.6582 83.0196 42.3549 82.336 43.013ZM65.6667 42.7462C65.6667 45.5346 63.6527 47.8526 61 48.3249V37.1674C63.6527 37.6398 65.6667 39.9578 65.6667 42.7462Z" fill="#00FF00"/>
</svg>
