<svg width="85" height="85" viewBox="0 0 85 85" fill="none" xmlns="http://www.w3.org/2000/svg">
<path d="M42.5 82C64.3152 82 82 64.3152 82 42.5C82 20.6848 64.3152 3 42.5 3C20.6848 3 3 20.6848 3 42.5C3 64.3152 20.6848 82 42.5 82Z" stroke="white" stroke-width="2"/>
<path fill-rule="evenodd" clip-rule="evenodd" d="M60.9648 40.6289C60.9883 40.6992 61 40.7578 61 40.8047V57.75C61 58.1484 60.9004 58.5234 60.7012 58.875C60.502 59.2266 60.2266 59.502 59.875 59.7012C59.5234 59.9004 59.1484 60 58.75 60H27.25C26.6406 60 26.1133 59.7832 25.668 59.3496C25.2227 58.916 25 58.3828 25 57.75V40.9102C25 40.0898 25.3398 39.457 26.0195 39.0117L31.75 33.2812V29.5898C31.75 29.2852 31.8613 29.0215 32.084 28.7988C32.3066 28.5762 32.5703 28.4648 32.875 28.4648H36.6016L40.6797 24.9492C40.9375 24.6914 41.2246 24.4863 41.541 24.334C41.8574 24.1816 42.1914 24.082 42.543 24.0352C42.8945 23.9883 43.2461 23.9883 43.5977 24.0352C43.9492 24.082 44.2832 24.1816 44.5996 24.334C44.916 24.4863 45.2031 24.6914 45.4609 24.9492L49.5742 28.4648H53.125C53.4297 28.4648 53.6934 28.5762 53.916 28.7988C54.1387 29.0215 54.25 29.2852 54.25 29.5898V33.2109L60.1211 39.1172L60.332 39.3281C60.4023 39.3984 60.4609 39.4688 60.5078 39.5391L60.543 39.5742C60.6133 39.6445 60.6719 39.7207 60.7188 39.8027C60.7656 39.8848 60.8066 39.9727 60.8418 40.0664C60.877 40.1602 60.9062 40.2539 60.9297 40.3477C60.9531 40.4414 60.9648 40.5352 60.9648 40.6289ZM34.457 49.5234L27.25 43.1602V56.2031L34.457 49.5234ZM36.6367 50.5781L28.8672 57.75H57.2383L43.7383 45.5156C43.5039 45.3281 43.2227 45.2344 42.8945 45.2344C42.5664 45.2344 42.2734 45.3398 42.0156 45.5508L37.1641 50.0508C37.1406 50.0977 37.1172 50.1387 37.0938 50.1738C37.0703 50.209 37.0469 50.2383 37.0234 50.2617C36.9062 50.4023 36.7773 50.5078 36.6367 50.5781ZM51.6484 49.6641L58.75 56.0625V43.3711L51.6484 49.6641ZM56.5703 38.6602L54.25 36.3398V44.3555L58.4688 40.5938L56.5352 38.6602H56.5703ZM42.2617 26.5313L40.0117 28.4648H46.1289L43.8789 26.5313C43.7617 26.4375 43.6328 26.3613 43.4922 26.3027C43.3516 26.2441 43.2109 26.2148 43.0703 26.2148C42.7656 26.2148 42.4961 26.3203 42.2617 26.5313ZM52 30.7148H34V46.1133L36.1094 47.9766L40.5742 43.8281C40.7148 43.7109 40.873 43.6055 41.0488 43.5117C41.2246 43.418 41.3945 43.3359 41.5586 43.2656C41.7227 43.1953 41.8984 43.1367 42.0859 43.0898C42.2734 43.043 42.4551 43.0137 42.6309 43.002C42.8066 42.9902 42.9883 42.9902 43.1758 43.002C43.3633 43.0137 43.5449 43.043 43.7207 43.0898C43.8965 43.1367 44.0664 43.1895 44.2305 43.248C44.3945 43.3066 44.5586 43.3828 44.7227 43.4766C44.8867 43.5703 45.0391 43.6758 45.1797 43.793L49.9961 48.1523L52 46.3594V30.7148ZM28.6562 39.5742H28.5859L27.6367 40.4883L31.75 44.1094V36.4805L28.6562 39.5742Z" fill="white"/>
</svg>
