<svg width="85" height="85" viewBox="0 0 85 85" fill="none" xmlns="http://www.w3.org/2000/svg">
<path d="M42.5 82C64.3152 82 82 64.3152 82 42.5C82 20.6848 64.3152 3 42.5 3C20.6848 3 3 20.6848 3 42.5C3 64.3152 20.6848 82 42.5 82Z" stroke="white" stroke-width="2"/>
<path fill-rule="evenodd" clip-rule="evenodd" d="M38.6717 53.4267C37.7347 54.2867 36.8357 54.2867 35.9767 53.4267L26.7187 44.0517C25.7807 43.1927 25.7607 42.3337 26.6597 41.4737C27.5577 40.6147 28.4367 40.6147 29.2967 41.4737L37.2657 49.3247L54.8437 31.6297C55.7027 30.7707 56.5817 30.7907 57.4807 31.6887C58.3777 32.5877 58.3977 33.4667 57.5387 34.3247" fill="white"/>
</svg>
