<svg width="102" height="18" viewBox="0 0 102 18" fill="none" xmlns="http://www.w3.org/2000/svg">
<g clip-path="url(#clip0_21_3795)">
<path d="M0 9C0 3.73324 3.89273 0 9.19434 0C12.2751 0 14.7581 1.16251 16.3822 3.26411L13.3732 6.08217C12.3229 4.77208 11.0327 4.05478 9.43261 4.05478C6.68658 4.05478 4.77567 6.0327 4.77567 8.99917C4.77567 11.9665 6.68658 13.9444 9.43261 13.9444C11.0327 13.9444 12.3221 13.2271 13.3732 11.917L16.3822 14.7359C14.7581 16.8375 12.2743 17.9992 9.19434 17.9992C3.89273 17.9992 0 14.2659 0 9ZM26.1263 0.346281C30.6877 0.346281 33.5532 2.79416 33.5532 6.75C33.5532 9.29681 32.3595 11.1758 30.282 12.2146L33.8879 17.6537H28.8246L25.7925 13.0548H23.213V17.6537H18.4843V0.346281H26.1263ZM38.76 0.346281L42.7245 7.21995L46.6889 0.346281H51.2741L44.8736 11.4479V17.6537H40.145V11.3737L33.7692 0.346281H38.76ZM25.8403 4.20319H23.213V9.27125H25.8403C27.7982 9.27125 28.7775 8.33217 28.7775 6.74918C28.7775 5.14309 27.7982 4.20319 25.8403 4.20319ZM67.4658 6.75C67.4658 10.6811 64.6003 13.129 60.039 13.129H57.1248V17.6537H52.3961V0.346281H60.039C64.6003 0.346281 67.4658 2.79416 67.4658 6.75ZM62.6894 6.75C62.6894 5.14309 61.7108 4.20319 59.7521 4.20319H57.1256V9.27125H59.7521C61.7108 9.27208 62.6894 8.33217 62.6894 6.75ZM72.9117 4.22792H67.7766V0.346281H82.7507V4.22792H77.6403V17.6537H72.9117V4.22792ZM83.4201 9C83.4201 3.80744 87.3606 0 92.71 0C98.0595 0 102 3.80744 102 9C102 14.1926 98.0595 18 92.71 18C87.3606 18 83.4201 14.1926 83.4201 9ZM97.2235 9C97.2235 6.00879 95.2417 4.05561 92.71 4.05561C90.1784 4.05561 88.1965 6.00879 88.1965 9C88.1965 11.992 90.1784 13.9452 92.71 13.9452C95.2417 13.9452 97.2235 11.9912 97.2235 9Z" fill="black"/>
</g>
<defs>
<clipPath id="clip0_21_3795">
<rect width="102" height="18" fill="white"/>
</clipPath>
</defs>
</svg>
